<svg id="Layer_1" data-name="Layer 1" xmlns="http://www.w3.org/2000/svg" viewBox="0 0 24 24"><title>account</title><path id="path-3" d="M13.79,20.83A9,9,0,0,1,5.7,18.4h0v0a10.1,10.1,0,0,1-.84-1,9,9,0,1,1,14.29.1,10.49,10.49,0,0,1-.88,1A9,9,0,0,1,13.79,20.83Zm4.85-4.29a8,8,0,1,0-13.3-.07C6.47,14.87,9,13.78,12,13.78S17.54,14.9,18.64,16.54ZM14.72,8.31l1.08,0A3.72,3.72,0,0,1,16,9.53a4,4,0,1,1-4-4,3.92,3.92,0,0,1,2,.56l-.61.8a3,3,0,1,0,1.33,1.42ZM12,20.05a8,8,0,0,0,6-2.67c-.76-1.48-3.23-2.6-6-2.6S6.8,15.86,6,17.31A8,8,0,0,0,12,20.05Z"/></svg>