<svg id="Layer_1" data-name="Layer 1" xmlns="http://www.w3.org/2000/svg" viewBox="0 0 24 24"><title>adjust</title><path id="path-3" d="M21,6V5h.55a.5.5,0,0,1,0,1ZM14,5V6H2.6A.56.56,0,0,1,2,5.5.56.56,0,0,1,2.6,5Zm1,.5A2.5,2.5,0,1,1,17.46,8,2.49,2.49,0,0,1,15,5.5Zm4,0A1.5,1.5,0,1,0,17.46,7,1.5,1.5,0,0,0,19,5.5ZM11,12V11H21.44a.5.5,0,1,1,0,1ZM4,11v1H2.5a.5.5,0,0,1,0-1Zm1,.5a2.49,2.49,0,1,1,.73,1.77A2.55,2.55,0,0,1,5,11.5Zm4,0A1.5,1.5,0,1,0,7.49,13,1.5,1.5,0,0,0,9,11.5ZM18,19V18h3.49a.5.5,0,1,1,0,1Zm-7-1v1H2.56a.5.5,0,1,1,0-1Zm1,.5A2.49,2.49,0,1,1,14.47,21,2.49,2.49,0,0,1,12,18.5Zm4,0a1.5,1.5,0,1,0-1.5,1.5A1.5,1.5,0,0,0,16,18.5Z" style="fill:#231f20"/></svg>