<svg xmlns="http://www.w3.org/2000/svg" xmlns:xlink="http://www.w3.org/1999/xlink" width="20" height="20" viewBox="0 0 20 20">
    <defs>
        <path id="a" d="M0 0h19.29v19.24H0z"/>
    </defs>
    <g fill="none" fill-rule="evenodd">
        <mask id="b" fill="#fff">
            <use xlink:href="#a"/>
        </mask>
        <path fill="#ADBFD0" d="M15.921 13.13c0 1.449-.964 2.661-2.252 2.984l-.003-.001c-.067 0-.128.025-.19.04a2.667 2.667 0 0 1-.484.052H6.3c-.059 0-.115-.014-.173-.018a.806.806 0 0 0-.336-.074c-.037 0-.067.018-.102.022-1.322-.296-2.318-1.53-2.318-3.005v-.896h12.551v.896zm-2.627-6.996H9.34c.163-.798.84-1.398 1.646-1.398h.663c.805 0 1.482.6 1.645 1.398zm5.233 4.496H6.623V2.692c0-.447.582-.943 1.416-.943h1.03c.834 0 1.415.496 1.415.943v.493c-1.532.256-2.71 1.64-2.71 3.319 0 .682.527 1.234 1.176 1.234h4.734c.648 0 1.177-.552 1.177-1.234 0-1.68-1.18-3.064-2.711-3.319v-.493C12.15 1.207 10.768 0 9.07 0H8.039c-1.7 0-3.082 1.207-3.082 2.692v7.938H.765c-.422 0-.765.359-.765.803 0 .443.343.801.765.801h1.078v.896c0 2.079 1.307 3.825 3.096 4.433v.784c0 .494.38.893.85.893.471 0 .853-.399.853-.893v-.537h6.172v.537c0 .494.381.893.852.893.47 0 .851-.399.851-.893v-.838c1.705-.657 2.932-2.363 2.932-4.379v-.896h1.078c.423 0 .764-.358.764-.801 0-.444-.341-.803-.764-.803z" mask="url(#b)"/>
    </g>
</svg>
