<svg xmlns="http://www.w3.org/2000/svg" width="20" height="20" viewBox="0 0 20 20">
    <g fill="none" fill-rule="evenodd">
        <path d="M0 0h20v20H0z"/>
        <path fill="#ADBFD0" d="M2.757 10.147c0-.484.394-.878.879-.878H15.48c.485 0 .879.394.879.878v3.36H2.757v-3.36zM4.36 5.398c0-.354.288-.641.642-.641h8.529c.352 0 .64.287.64.641v2.114H4.36V5.398zm11.567 2.16v-2.16A2.4 2.4 0 0 0 13.531 3H5a2.401 2.401 0 0 0-2.398 2.398v2.325A2.64 2.64 0 0 0 1 10.147V16.582a.878.878 0 1 0 1.757 0v-1.317H16.36v1.317a.878.878 0 1 0 1.757 0v-6.435c0-1.3-.95-2.377-2.19-2.59z"/>
    </g>
</svg>
