<svg id="Layer_1" data-name="Layer 1" xmlns="http://www.w3.org/2000/svg" viewBox="0 0 24 24"><title>bell-active</title><path d="M22,15v0L18.62,13l-1-3.78a4.24,4.24,0,0,1-.93.24l1.06,4a.53.53,0,0,0,.23.3l2.52,1.45L6.22,19l1.46-2.52a.5.5,0,0,0,.05-.36L6.25,10.6A5.18,5.18,0,0,1,9.92,4.26a5,5,0,0,1,1.67-.14,5.05,5.05,0,0,1,.32-1,6.13,6.13,0,0,0-6.59,7.68l1.43,5.33L4.83,19.52a.45.45,0,0,0,0,.52.46.46,0,0,0,.49.17l5-1.32.43.55a3.35,3.35,0,0,0,5.9-.9.48.48,0,1,0-.89-.26,2.39,2.39,0,0,1-4.23.63l-.2-.25,10.53-2.82a.47.47,0,0,0,.34-.4A.47.47,0,0,0,22,15Z" style="fill:#231f20"/><circle cx="16" cy="5.03" r="3.5" style="fill:#ff414a"/></svg>