<svg id="Layer_1" data-name="Layer 1" xmlns="http://www.w3.org/2000/svg" viewBox="0 0 24 24"><title>bell</title><path id="path-3" d="M20.87,17.38l-2.72-2.73V9.13a6.15,6.15,0,0,0-12.3,0v5.52L3.13,17.38a.46.46,0,0,0-.09.51.48.48,0,0,0,.43.3H8.6l.27.64a3.34,3.34,0,0,0,5.93.65.48.48,0,0,0,.1-.53A.48.48,0,0,0,14,19a2.38,2.38,0,0,1-4.24-.49l-.13-.29h10.9a.48.48,0,0,0,.43-.3.46.46,0,0,0-.09-.51ZM4.61,17.24l2.06-2.06a.45.45,0,0,0,.15-.34V9.13a5.18,5.18,0,0,1,10.36,0v5.71a.45.45,0,0,0,.15.34l2.06,2.06Z" style="fill:#231f20"/></svg>