<svg id="Layer_1" data-name="Layer 1" xmlns="http://www.w3.org/2000/svg" viewBox="0 0 24 24"><title>briefcase</title><path id="path-3" d="M20.52,6.5H16V5a.53.53,0,0,0-.15-.34.52.52,0,0,0-.36-.14H8.61A.51.51,0,0,0,8.1,5V6.5H3.49C3,6.5,3,6.93,3,7.18v3.6a.5.5,0,0,0,.32.46L9,13.17v-1L4,10.5v-3H20v3l-6,2V12a.48.48,0,0,0-.47-.49h-3A.51.51,0,0,0,10,12v3a.5.5,0,0,0,.5.49h3A.47.47,0,0,0,14,15V13.5l5.58-1.89V18.5H4.5v-6a.5.5,0,0,0-1,0V19a.49.49,0,0,0,.15.36A.45.45,0,0,0,4,19.5H20.05a.48.48,0,0,0,.47-.48V11.29l.16,0a.5.5,0,0,0,.32-.46V7.18C21,6.92,21,6.5,20.52,6.5ZM9,5.5h6v1H9Zm4,9H11v-2h2Z" style="fill:#231f20"/></svg>