<svg id="Layer_1" data-name="Layer 1" xmlns="http://www.w3.org/2000/svg" viewBox="0 0 24 24"><title>businessman</title><path id="path-3" d="M12,10.54a3.69,3.69,0,0,0,3.65-3.72,3.63,3.63,0,0,0-1.76-3.3,3.67,3.67,0,0,0-3.76,0,3.63,3.63,0,0,0-1.76,3.3A3.67,3.67,0,0,0,12,10.54Zm0-.94A2.73,2.73,0,0,1,9.31,7c.5-.47,1.6-1.25,2.21-.76,1,.82,2.27.1,3-.46a2.75,2.75,0,0,1-.25,2.55A2.78,2.78,0,0,1,12,9.6Zm0-5.51a2.66,2.66,0,0,1,2,1c-.57.44-1.43.93-1.94.52a2.12,2.12,0,0,0-2.54.15A2.73,2.73,0,0,1,12,4.09Zm4.17,11.78L17,20.06H7l1.07-5.42a2.82,2.82,0,0,1,2.36-1.8l.34-.08a4.85,4.85,0,0,1,.57-.09l-1.1,3.7a.67.67,0,0,0,0,.52L11.43,19a.64.64,0,0,0,1.15,0l1.16-2.08a.62.62,0,0,0,.07-.53L12.68,12.7a3.82,3.82,0,0,1,.69.11l.23.06a2.82,2.82,0,0,1,2.32,1.79v.07h.94l-.05-.25a3.68,3.68,0,0,0-3-2.54h-.23a6.86,6.86,0,0,0-3,0l-.34.07a3.68,3.68,0,0,0-3.06,2.55L6,20.43a.48.48,0,0,0,.09.4.46.46,0,0,0,.36.17H17.54a.46.46,0,0,0,.36-.17.48.48,0,0,0,.09-.4l-.88-4.56Zm-3.28.66L12,18.12l-.85-1.58L12,13.63Z" style="fill:#231f20"/></svg>