<svg id="Layer_1" data-name="Layer 1" xmlns="http://www.w3.org/2000/svg" viewBox="0 0 24 24"><title>camera</title><path id="path-3" d="M19.5,18H4.5a.51.51,0,0,1-.5-.52V8.74a.51.51,0,0,1,.5-.52H6.42l.52-1.85A.5.5,0,0,1,7.42,6h9.16a.5.5,0,0,1,.48.37l.52,1.85H19.5a.51.51,0,0,1,.5.52v8.74A.51.51,0,0,1,19.5,18ZM5,17H19V9.26H17.21a.51.51,0,0,1-.48-.38L16.2,7H7.8L7.27,8.88a.51.51,0,0,1-.48.38H5Zm8.64-5.36a1.77,1.77,0,0,1,.11.6A1.75,1.75,0,1,1,12,10.39a1.64,1.64,0,0,1,.88.26V9.52A2.64,2.64,0,0,0,12,9.35a2.85,2.85,0,1,0,2.75,2.85,3.05,3.05,0,0,0-.06-.6Z" style="fill:#231f20"/></svg>