<svg id="Layer_1" data-name="Layer 1" xmlns="http://www.w3.org/2000/svg" viewBox="0 0 24 24"><title>clip</title><path id="Shape" d="M18.46,6.1a3.6,3.6,0,0,0-5.18,0L8.62,10.81,6.84,12.62,5.46,14a2.57,2.57,0,0,0,0,4A2.49,2.49,0,0,0,9.4,18l5.07-5.15,1.37-1.39.43-.43a1.67,1.67,0,0,0,.58-1.27,2,2,0,0,0-.58-1.26A1.64,1.64,0,0,0,15,7.94a1.62,1.62,0,0,0-1.24.59l-3.65,3.71a.43.43,0,0,0,0,.62.43.43,0,0,0,.61,0l3.65-3.71A.89.89,0,0,1,15,8.82a.75.75,0,0,1,.63.28l0,.05a1.18,1.18,0,0,1,.28.64.81.81,0,0,1-.32.64l-.43.44-1.45,1.3L8.7,17.32A1.64,1.64,0,0,1,6,17.37,1.69,1.69,0,0,1,5.34,16,1.71,1.71,0,0,1,6,14.64l1.38-1.4,1.79-1.8,4.7-4.76a2.87,2.87,0,0,1,3.79-.14,2.92,2.92,0,0,1,.12,4.27l-3.33,3.4-3.07,3a.44.44,0,0,0,.62.62l3.27-3.33,3.17-3.21A3.79,3.79,0,0,0,18.46,6.1Z" style="fill:#231f20"/></svg>