<svg id="Layer_1" data-name="Layer 1" xmlns="http://www.w3.org/2000/svg" viewBox="0 0 24 24"><title>coin</title><path id="path-3" d="M12,21a9,9,0,1,1,9-9A9,9,0,0,1,12,21ZM12,4a8,8,0,1,0,5.66,2.34A8,8,0,0,0,12,4Zm.35,7.4a3.73,3.73,0,0,1,2,.87,2.21,2.21,0,0,1,.52,1.56,2.65,2.65,0,0,1-.66,1.78,2.49,2.49,0,0,1-1.84.82v.91h-.62v-.9a2.58,2.58,0,0,1-1.82-.75,2.53,2.53,0,0,1-.74-1.82h1.14a1.64,1.64,0,0,0,1.42,1.68V12.28c-1.6-.28-2.4-1.09-2.4-2.28A2.22,2.22,0,0,1,10,8.29a2.73,2.73,0,0,1,1.73-.73v-.9h.62v.9a2.22,2.22,0,0,1,2.3,2.13H13.5a1.22,1.22,0,0,0-1.15-1.24Zm-.62-.13V8.44a1.31,1.31,0,0,0-.93.46,1.33,1.33,0,0,0-.31,1,1.23,1.23,0,0,0,.34.95A2.05,2.05,0,0,0,11.73,11.27Zm.62,4.28a1.43,1.43,0,0,0,1.36-1.65,1.43,1.43,0,0,0-.28-.94,2.09,2.09,0,0,0-1.08-.54Z" style="fill:#231f20"/></svg>