<svg id="Layer_1" data-name="Layer 1" xmlns="http://www.w3.org/2000/svg" viewBox="0 0 32 32"><title>colour-remove</title><circle id="Oval-2" cx="16" cy="16" r="13" style="fill:#ffcad6"/><path id="path-3" d="M21.6,10.49H18V9.42c0-.23-.28-.42-.5-.42h-3c-.22,0-.5.19-.5.42v1.07H10.4c-.22,0-.4.28-.4.51s.18.5.4.5h1.09V22.58a.41.41,0,0,0,.41.42h8.2a.41.41,0,0,0,.4-.42V11.5h1.1c.22,0,.4-.27.4-.5S21.82,10.49,21.6,10.49ZM15,10h2v.66H15Zm4.5,12h-7V11.5h7Zm-5-1a.46.46,0,0,0,.5-.43V13.43a.51.51,0,0,0-1,0v7.14A.46.46,0,0,0,14.5,21Zm3,0a.46.46,0,0,0,.5-.43V13.43a.51.51,0,0,0-1,0v7.14A.46.46,0,0,0,17.5,21Z" style="fill:#ff4171"/></svg>