<svg id="Layer_1" data-name="Layer 1" xmlns="http://www.w3.org/2000/svg" viewBox="0 0 24.53 24.53"><title>company</title><path id="path-3" d="M20.79,8.94H15.16v1h5.11V20.27H15.16v.48a2,2,0,0,1-.09.48h5.72a.49.49,0,0,0,.48-.48V9.42a.48.48,0,0,0-.14-.34A.49.49,0,0,0,20.79,8.94Zm-1.86,4.81h-2a.48.48,0,0,1-.46-.48v-2a.47.47,0,0,1,.48-.48h2a.48.48,0,0,1,.48.48v2a.49.49,0,0,1-.15.34A.52.52,0,0,1,18.93,13.75Zm-1.52-1h1v-1h-1Zm1.52,5.31h-2a.48.48,0,0,1-.48-.48v-2a.47.47,0,0,1,.48-.48h2a.48.48,0,0,1,.48.48v2A.49.49,0,0,1,18.93,18.06Zm-1.52-1h1v-1h-1ZM13.69,3.27H3.75a.48.48,0,0,0-.48.48v17a.49.49,0,0,0,.14.34.48.48,0,0,0,.34.14H7.5V15.11H9.92v6.16h3.77a.49.49,0,0,0,.48-.48v-17A.5.5,0,0,0,14,3.42.47.47,0,0,0,13.69,3.27Zm-.48,17H10.87V14.63a.48.48,0,0,0-.14-.34.49.49,0,0,0-.34-.14H7a.48.48,0,0,0-.48.48v5.64H4.27v-16h9ZM7.55,8h-2a.48.48,0,0,1-.48-.48v-2a.48.48,0,0,1,.48-.48h2a.49.49,0,0,1,.34.14A.48.48,0,0,1,8,5.53v2A.48.48,0,0,1,7.55,8ZM6,7H7V6H6Zm5.81,1h-2a.48.48,0,0,1-.34-.14.49.49,0,0,1-.14-.34v-2a.48.48,0,0,1,.48-.48h2a.49.49,0,0,1,.34.14.48.48,0,0,1,.14.34v2a.48.48,0,0,1-.48.48ZM10.32,7h1V6h-1ZM7.55,12.33h-2a.48.48,0,0,1-.48-.48v-2a.47.47,0,0,1,.48-.48h2a.49.49,0,0,1,.34.14A.48.48,0,0,1,8,9.85v2A.49.49,0,0,1,7.55,12.33ZM6,11.33H7v-1H6Zm5.81,1h-2a.48.48,0,0,1-.34-.14.49.49,0,0,1-.14-.34v-2a.48.48,0,0,1,.48-.48h2a.48.48,0,0,1,.48.48v2A.49.49,0,0,1,11.84,12.33Zm-1.52-1h1v-1h-1Z" style="fill:#231f20"/></svg>