<svg id="Layer_1" data-name="Layer 1" xmlns="http://www.w3.org/2000/svg" viewBox="0 0 24.53 24.53"><title>contact</title><path id="path-3" d="M11.26,9.63a2.21,2.21,0,0,1,2.9-2.88,2.21,2.21,0,1,1-2.9,2.88Zm2-2a1.2,1.2,0,0,0-.85,2.06,1.21,1.21,0,0,0,2.06-.85A1.21,1.21,0,0,0,13.3,7.59Zm7-3.32,0,16a1,1,0,0,1-1,1h-13a1,1,0,0,1-1-1V16.51H4.77a.51.51,0,0,1-.5-.5.5.5,0,0,1,.5-.5h.49V12.64H4.77a.5.5,0,0,1-.5-.5.5.5,0,0,1,.5-.5H5.3V10.27h.94v1.39h.53a.5.5,0,0,1,0,1H6.24v2.87h.53a.5.5,0,0,1,.5.5.52.52,0,0,1-.5.5H6.23v3.82H19.31V4.27H6.25V8h.52a.5.5,0,0,1,0,1h-2a.5.5,0,0,1-.5-.5.5.5,0,0,1,.5-.5h.54V4.27a1,1,0,0,1,1-1H19.25A1,1,0,0,1,20.25,4.27ZM9.33,15.76v.43h8v-.48a4.25,4.25,0,0,0-4-4.44A4.26,4.26,0,0,0,9.33,15.76Zm1-.49a3.19,3.19,0,0,1,3-2.84,3.19,3.19,0,0,1,3,2.84Z"/></svg>