<svg id="Layer_1" data-name="Layer 1" xmlns="http://www.w3.org/2000/svg" viewBox="0 0 24 24"><title>credit-card</title><path d="M5.45,8.11a.47.47,0,0,0-.32.14A.46.46,0,0,0,5,8.58v2.05a.46.46,0,0,0,.42.48H8.53A.48.48,0,0,0,8.87,11,.51.51,0,0,0,9,10.63V8.58a.51.51,0,0,0-.13-.33.48.48,0,0,0-.34-.14Zm2.69,2.06H5.81V9H8.14Z" style="fill:#231f20"/><path d="M15.67,12.47a2.27,2.27,0,0,0-.25-.18,2,2,0,0,0-1-.3,1.91,1.91,0,0,0-1.64.95,1.93,1.93,0,0,0,0,1.89,1.89,1.89,0,0,0,1.64.95,2,2,0,0,0,1-.3l.23-.17a1.87,1.87,0,0,0,1.24.48,2,2,0,0,0,1-.3,1.9,1.9,0,0,0,.58-.55,1.85,1.85,0,0,0,0-2.09,1.79,1.79,0,0,0-.58-.55,2,2,0,0,0-1-.3A1.85,1.85,0,0,0,15.67,12.47Zm-.78,2.46h0a1.15,1.15,0,0,1-1.6-1,1.11,1.11,0,0,1,.34-.81,1.08,1.08,0,0,1,.81-.33,1,1,0,0,1,.45.09,1,1,0,0,1,.34.23,1.86,1.86,0,0,0,0,1.61A1.41,1.41,0,0,1,14.89,14.93Zm3-1.49a1,1,0,0,1,0,1,1.17,1.17,0,0,1-.53.5h0a1.17,1.17,0,0,1-1.06-.08,1.07,1.07,0,0,1-.16-.14,1.83,1.83,0,0,0,0-1.63,1.06,1.06,0,0,1,.75-.29,1,1,0,0,1,.45.09A1.13,1.13,0,0,1,17.89,13.44Z" style="fill:#231f20"/><path d="M20.87,6.65a.49.49,0,0,0-.34-.15H19.22v1h.84v9H3.94v-9h13v-1H3.47a.49.49,0,0,0-.34.15A.47.47,0,0,0,3,7V17a.51.51,0,0,0,.13.34.49.49,0,0,0,.34.15H20.53a.49.49,0,0,0,.34-.15A.51.51,0,0,0,21,17V7A.47.47,0,0,0,20.87,6.65Z" style="fill:#231f20"/></svg>