<svg id="Layer_1" data-name="Layer 1" xmlns="http://www.w3.org/2000/svg" viewBox="0 0 24 24"><title>dash</title><path id="path-3" d="M9.15,21a.53.53,0,0,1-.25,0,.49.49,0,0,1-.26-.58l1.89-6.32h-5a.52.52,0,0,1-.43-.23.48.48,0,0,1,0-.48l4.66-10A.5.5,0,0,1,10.18,3h5.19a.53.53,0,0,1,.46.25.5.5,0,0,1,0,.5L12.63,9h5.85a.56.56,0,0,1,.47.29.47.47,0,0,1-.07.53l-9.34,11A.52.52,0,0,1,9.15,21ZM6.33,13h4.89a.52.52,0,0,1,.42.2.47.47,0,0,1,.08.44l-1.38,4.63,7-8.26H11.73a.54.54,0,0,1-.46-.26.5.5,0,0,1,0-.5L14.45,4H10.52Z"/></svg>