<svg id="Layer_1" data-name="Layer 1" xmlns="http://www.w3.org/2000/svg" viewBox="0 0 24 24"><title>dashboard</title><path id="path-3" d="M10.29,4.16A9,9,0,0,0,6.35,20,8.3,8.3,0,0,1,9.1,18.24V17.8a4.55,4.55,0,0,1,.11-.62,9.1,9.1,0,0,0-2.89,1.56,8.05,8.05,0,1,1,11.29,0,9.15,9.15,0,0,0-2.81-1.53,6.17,6.17,0,0,0,.1.62,3.2,3.2,0,0,1,0,.44A8.27,8.27,0,0,1,17.64,20a8.62,8.62,0,0,0,.71-.63A9,9,0,0,0,10.29,4.16ZM14,15.63a8.34,8.34,0,0,0,0-1,23.54,23.54,0,0,0-.59-4c-.15-.63-.55-.71-.9-.16A22.54,22.54,0,0,0,10.63,14a7.36,7.36,0,0,0-.34,1,4.34,4.34,0,0,0-.14.6c-.43,2.43.25,3.57,1.31,3.76s2.09-.65,2.52-3.08C14,16.07,14,15.85,14,15.63Zm-2.41,2.7c-.56-.1-.76-1.12-.5-2.6A5.16,5.16,0,0,1,11.3,15c.09-.28.22-.59.36-.92a19.63,19.63,0,0,1,1-2,21.11,21.11,0,0,1,.3,2.22v1a6.82,6.82,0,0,1-.07.79c-.17,1.49-.7,2.38-1.27,2.28ZM7.75,15.89c-.24.16-.47.32-.7.5a6,6,0,1,1,9.91,0c-.22-.18-.46-.34-.7-.5a5.13,5.13,0,1,0-8.51,0Z"/></svg>