<svg id="Layer_1" data-name="Layer 1" xmlns="http://www.w3.org/2000/svg" viewBox="0 0 24.53 24.53"><title>date</title><path id="path-3" d="M20.74,5.76H17.27V5.25a.49.49,0,0,0-.5-.48.48.48,0,0,0-.5.48V7.41a.48.48,0,0,0,.5.48.49.49,0,0,0,.5-.48V6.77h3v3h-16v-3H7.34v.67a.49.49,0,0,0,.5.48.5.5,0,0,0,.5-.48V6.77h3.5v.67a.49.49,0,0,0,.5.48.5.5,0,0,0,.5-.48V6.77h.93a.51.51,0,0,0,.5-.5h0a.51.51,0,0,0-.5-.5h-.93V5.25a.49.49,0,0,0-.5-.48.48.48,0,0,0-.5.48v.52H8.33V5.25a.49.49,0,0,0-.5-.48.48.48,0,0,0-.5.48v.51H3.77a.46.46,0,0,0-.35.11.47.47,0,0,0-.15.35V19.28a.5.5,0,0,0,.5.49h17a.5.5,0,0,0,.5-.49V6.22a.51.51,0,0,0-.17-.34A.58.58,0,0,0,20.74,5.76Zm-.47,13h-16v-8h16Zm-9.51-2a.51.51,0,0,0,.47-.31.48.48,0,0,0-.11-.54.49.49,0,0,0-.85.35A.51.51,0,0,0,10.76,16.77Zm-2.53-.31a.48.48,0,0,0-.11-.54.49.49,0,0,0-.85.35.46.46,0,0,0,.14.35.5.5,0,0,0,.82-.16Zm9-3.19a.53.53,0,0,0-.5-.5.52.52,0,0,0-.5.5.53.53,0,0,0,.5.5A.54.54,0,0,0,17.27,13.27Zm-3,0a.5.5,0,0,0-.5-.5.5.5,0,0,0-.5.5.5.5,0,0,0,.5.5A.51.51,0,0,0,14.27,13.27Zm-3.51.5a.51.51,0,0,0,.47-.31.48.48,0,0,0-.11-.54.49.49,0,0,0-.85.35A.51.51,0,0,0,10.76,13.77Zm-2.53-.31a.48.48,0,0,0-.11-.54.49.49,0,0,0-.85.35.46.46,0,0,0,.14.35.5.5,0,0,0,.82-.16Z"/></svg>