<svg id="Layer_1" data-name="Layer 1" xmlns="http://www.w3.org/2000/svg" viewBox="0 0 24 24"><title>draft</title><path id="path-3" d="M9.38,20.63a1.19,1.19,0,0,0,.06.37H4.54a.57.57,0,0,1-.38-.13A.46.46,0,0,1,4,20.53v-17a.48.48,0,0,1,.16-.35A.52.52,0,0,1,4.54,3H11V4H5.08V20.15h4.3ZM17,19.06l.95-1v2.47a.49.49,0,0,1-.5.47H15l1-.95h1ZM13,8.27h4v2.78a1.71,1.71,0,0,1,.51-.1h.3L18,11V7.82a.6.6,0,0,0,0-.19.44.44,0,0,0-.1-.16L13.34,3.19A.53.53,0,0,0,13,3.06a.47.47,0,0,0-.43.25.3.3,0,0,0-.05.16.06.06,0,0,0,0,.06V7.79A.47.47,0,0,0,13,8.27Zm.5-3.61,2.79,2.67h-2.8ZM11,20.52v-2a.48.48,0,0,1,.14-.34l6.07-6.11a.51.51,0,0,1,.33-.13.73.73,0,0,1,.34.14l2,2.06a.47.47,0,0,1,0,.67l-6,6a.43.43,0,0,1-.32.14h-2a.44.44,0,0,1-.37-.08A.47.47,0,0,1,11,20.52Zm7.86-6-1.32-1.37-5.6,5.62V20h1.35Zm-3.94-3H7.7a.61.61,0,0,1-.59-.21.47.47,0,0,1,0-.57.59.59,0,0,1,.59-.21h7.21a.59.59,0,0,1,.59.21.5.5,0,0,1,0,.57A.61.61,0,0,1,14.91,11.48Zm-2.14,2H7.7a.61.61,0,0,1-.59-.22.47.47,0,0,1,0-.57.61.61,0,0,1,.59-.21h5.07a.61.61,0,0,1,.59.21.47.47,0,0,1,0,.57A.61.61,0,0,1,12.77,13.48Zm.3,1-1.12,1H7.66a.5.5,0,0,1,0-1Z" style="fill:#231f20"/></svg>