<svg id="Layer_1" data-name="Layer 1" xmlns="http://www.w3.org/2000/svg" viewBox="0 0 24 24"><title>excel</title><path id="path-3" d="M20.09,5.12H14.17V3.55A.49.49,0,0,0,14,3.14.57.57,0,0,0,13.62,3h-.11L3.45,4.89A.56.56,0,0,0,3,5.43V18.57a.56.56,0,0,0,.45.55L13.51,21h.11a.55.55,0,0,0,.35-.12.53.53,0,0,0,.2-.42V18.89h5.92a.9.9,0,0,0,.64-.26A.87.87,0,0,0,21,18V6A.9.9,0,0,0,20.09,5.12ZM14.17,16.43h1.44v-1.1H14.17V13.61h1.44v-1.1H14.17V11h1.44V10H14.17V8.68h1.44V7.58H14.17V6.21h5.72V17.8H14.17ZM13.06,19.8,4.11,18.13V5.88l9-1.68ZM16,15.33h3v1.1H16Zm0-2.82h3v1.1H16ZM16,10h3v1H16Zm-4.59-.94L9.61,12l1.81,3H9.51l-1-1.87L7.51,15H5.59l1.93-3L5.76,9.06h2l.88,1.83v-.07l1-1.76ZM16,7.58h3v1.1H16Z"/></svg>