<svg id="Layer_1" data-name="Layer 1" xmlns="http://www.w3.org/2000/svg" viewBox="0 0 24 24"><title>file-2</title><path id="path-3" d="M19,7.6a.41.41,0,0,1,.05.19V20.53a.51.51,0,0,1-.54.47H5.54A.51.51,0,0,1,5,20.53V3.47A.51.51,0,0,1,5.54,3H12V4H6.08v16.1H17.93V8.23h-4.3a.51.51,0,0,1-.54-.47V3.41a.43.43,0,0,1,.05-.16A.53.53,0,0,1,13.6,3a.56.56,0,0,1,.38.14l4.86,4.29A.45.45,0,0,1,19,7.6Zm-3.72,4.89H8.77a.48.48,0,1,1,0-1h6.46a.48.48,0,1,1,0,1Zm-.33,3.79H8.77a.48.48,0,1,1,0-1H14.9a.48.48,0,1,1,0,1Zm-1.55-1.93H8.77a.48.48,0,1,1,0-.95h4.54a.48.48,0,1,1,0,.95Zm.8-7.06h3l-3-2.67Z" style="fill:#231f20"/></svg>