<svg id="Layer_1" data-name="Layer 1" xmlns="http://www.w3.org/2000/svg" viewBox="0 0 24 24"><title>file-waiting</title><path id="path-1" d="M12.25,8.24h4.13v2l1,.36V7.79a.61.61,0,0,0,0-.19.42.42,0,0,0-.1-.17l-4.7-4.29A.54.54,0,0,0,12.25,3a.5.5,0,0,0-.45.25.75.75,0,0,0-.05.16V7.76A.51.51,0,0,0,12.25,8.24Zm.52-3.62,2.89,2.67H12.77ZM10.29,20.05l1.13.95H4.52A.49.49,0,0,1,4,20.53V3.47A.49.49,0,0,1,4.52,3h6.19V4H5v16.1Zm7.35-2.95h-3a.5.5,0,0,1-.51-.5V14.24a.52.52,0,0,1,1,0V16.1h2.52a.5.5,0,1,1,0,1ZM14.84,21a5.08,5.08,0,0,1-5.16-5,5.08,5.08,0,0,1,5.16-5A5.08,5.08,0,0,1,20,16a4.92,4.92,0,0,1-1.51,3.54A5.28,5.28,0,0,1,14.84,21Zm0-9A4,4,0,1,0,19,16,4.07,4.07,0,0,0,14.84,12Z" style="fill:#231f20"/></svg>