<svg id="Layer_1" data-name="Layer 1" xmlns="http://www.w3.org/2000/svg" viewBox="0 0 24 24"><title>help</title><path id="path-3" d="M20.62,9.4a.48.48,0,0,0-.54-.33.46.46,0,0,0-.38.49l-3,.75a5.05,5.05,0,0,0-3-3l.75-3a8.09,8.09,0,0,1,3.39,2.12.45.45,0,0,0,.33.14.48.48,0,0,0,.34-.14.48.48,0,0,0,0-.67A8.91,8.91,0,0,0,12,3a9,9,0,1,0,8.62,6.4Zm-.72,1.14A8.92,8.92,0,0,1,20.05,12a7.94,7.94,0,0,1-.14,1.46l-3-.74Q17,12.36,17,12c0-.24,0-.48-.07-.72ZM16,12a4,4,0,1,1-4-4A4,4,0,0,1,16,12ZM4,12a7.15,7.15,0,0,1,.14-1.46l3,.74A4.57,4.57,0,0,0,7,12a4.39,4.39,0,0,0,.07.72l-3,.74A7.11,7.11,0,0,1,4,12Zm9.51-7.91-.74,3A5.2,5.2,0,0,0,12,7a5.66,5.66,0,0,0-.72.07l-.74-3a7.55,7.55,0,0,1,2.92,0Zm-3.89.24.74,3a5,5,0,0,0-3,3l-3-.74A8.05,8.05,0,0,1,9.57,4.33ZM4.33,14.43l3-.74a5,5,0,0,0,3,3l-.74,3A8,8,0,0,1,4.33,14.43Zm6.21,5.48.74-3A4.17,4.17,0,0,0,12,17a5.85,5.85,0,0,0,.72-.07l.74,3a7.55,7.55,0,0,1-2.92,0Zm3.89-.24-.74-3a5.05,5.05,0,0,0,3-3l3,.74A8.06,8.06,0,0,1,14.43,19.67Z"/></svg>