<svg xmlns="http://www.w3.org/2000/svg" width="349.29" height="121.97" viewBox="0 0 349.29 121.97"><title>UA_city_outline</title><g id="Layer_2" data-name="Layer 2"><g id="Layer_1-2" data-name="Layer 1"><g id="Stroke-144"><path d="M129.06,26.79h-.24a.5.5,0,0,1-.48-.51.51.51,0,0,1,.52-.49h.2c.23,0,.46,0,.68,0a.49.49,0,0,1,.56.43.51.51,0,0,1-.44.56A7,7,0,0,1,129.06,26.79Zm-2.1-.38-.18,0a8.1,8.1,0,0,1-.94-.45.5.5,0,0,1,.49-.87,5.3,5.3,0,0,0,.8.38.5.5,0,0,1-.17,1Zm4.69-.21a.48.48,0,0,1-.45-.28.5.5,0,0,1,.23-.67,4.42,4.42,0,0,0,.76-.44.5.5,0,1,1,.58.82,6.29,6.29,0,0,1-.91.52A.41.41,0,0,1,131.65,26.2Zm-7.06-1.41a.5.5,0,0,1-.37-.17,6.25,6.25,0,0,1-.63-.83.49.49,0,0,1,.15-.69.5.5,0,0,1,.69.15,6.12,6.12,0,0,0,.53.7.5.5,0,0,1,0,.71A.46.46,0,0,1,124.59,24.79Zm9.27-.4a.51.51,0,0,1-.4-.81,5.21,5.21,0,0,0,.48-.74.49.49,0,0,1,.67-.21.5.5,0,0,1,.21.67,6.33,6.33,0,0,1-.56.89A.51.51,0,0,1,133.86,24.39Zm-10.62-2.13a.5.5,0,0,1-.48-.38,5.83,5.83,0,0,1-.17-1,.5.5,0,1,1,1-.09,6.47,6.47,0,0,0,.15.88.5.5,0,0,1-.36.6ZM135,21.75h-.08a.5.5,0,0,1-.42-.57,5.22,5.22,0,0,0,.07-.88.53.53,0,0,1,.5-.54h0a.47.47,0,0,1,.5.45v0a7.55,7.55,0,0,1-.08,1.09A.5.5,0,0,1,135,21.75Zm-11.76-2.36h-.12a.5.5,0,0,1-.37-.6,6.85,6.85,0,0,1,.32-1,.52.52,0,0,1,.66-.27.5.5,0,0,1,.26.66,5.88,5.88,0,0,0-.27.84A.49.49,0,0,1,123.23,19.39Zm11.5-.57a.49.49,0,0,1-.47-.34,5.87,5.87,0,0,0-.36-.81.49.49,0,0,1,.2-.67.49.49,0,0,1,.68.2,5.38,5.38,0,0,1,.42.95.51.51,0,0,1-.31.64A.45.45,0,0,1,134.73,18.82Zm-10.19-2a.52.52,0,0,1-.33-.12.49.49,0,0,1,0-.7,5.74,5.74,0,0,1,.75-.73.49.49,0,0,1,.7.06.51.51,0,0,1-.06.71,4.54,4.54,0,0,0-.63.61A.48.48,0,0,1,124.54,16.84Zm8.63-.43a.48.48,0,0,1-.34-.13,5.94,5.94,0,0,0-.69-.55A.51.51,0,0,1,132,15a.5.5,0,0,1,.7-.13,6.23,6.23,0,0,1,.81.65.5.5,0,0,1-.34.86Zm-6.29-1.21a.5.5,0,0,1-.18-1,5.76,5.76,0,0,1,1-.3.5.5,0,0,1,.6.38.52.52,0,0,1-.39.6,5.16,5.16,0,0,0-.85.25A.58.58,0,0,1,126.88,15.2Zm3.79-.19-.13,0a5.35,5.35,0,0,0-.87-.17.5.5,0,0,1-.44-.55.49.49,0,0,1,.55-.44,5.91,5.91,0,0,1,1,.19.5.5,0,0,1-.13,1Z" fill="#46adfc"/></g><g id="Stroke-1"><path d="M214.8,120.79a.51.51,0,0,1-.5-.5V50.79H189.07L181.3,62.44v37.85a.5.5,0,0,1-.5.5h-9.5v19.5a.5.5,0,0,1-.5.5.51.51,0,0,1-.5-.5v-20a.5.5,0,0,1,.5-.5h9.5V62.29a.47.47,0,0,1,.09-.28l8-12a.48.48,0,0,1,.41-.22h26a.5.5,0,0,1,.5.5v70A.5.5,0,0,1,214.8,120.79Z" fill="#46adfc"/></g><g id="Path"><path d="M202.8,58.79h-4a.51.51,0,0,1-.5-.5v-4a.5.5,0,0,1,.5-.5h4a.5.5,0,0,1,.5.5v4A.5.5,0,0,1,202.8,58.79Zm-3.5-1h3v-3h-3Z" fill="#46adfc"/></g><g id="Path-2" data-name="Path"><path d="M196.8,70.79h-4a.51.51,0,0,1-.5-.5v-16a.5.5,0,0,1,.5-.5h4a.5.5,0,0,1,.5.5v16A.5.5,0,0,1,196.8,70.79Zm-3.5-1h3v-15h-3Z" fill="#46adfc"/></g><g id="Path-3" data-name="Path"><path d="M214.8,120.79h-10a.51.51,0,0,1-.5-.5v-11.5h-5v11.5a.5.5,0,0,1-.5.5h-10a.51.51,0,0,1-.5-.5v-70a.5.5,0,0,1,.5-.5h26a.5.5,0,0,1,.5.5v70A.5.5,0,0,1,214.8,120.79Zm-9.5-1h9v-69h-25v69h9v-11.5a.5.5,0,0,1,.5-.5h6a.5.5,0,0,1,.5.5Z" fill="#46adfc"/></g><g id="Stroke-5"><path d="M182.8,120.79a.51.51,0,0,1-.5-.5v-11.5h-5v11.5a.5.5,0,0,1-.5.5.51.51,0,0,1-.5-.5v-12a.5.5,0,0,1,.5-.5h6a.5.5,0,0,1,.5.5v12A.5.5,0,0,1,182.8,120.79Z" fill="#46adfc"/></g><g id="Stroke-6"><path d="M110.82,120.79a.51.51,0,0,1-.5-.5V52.79H98.82a.51.51,0,0,1-.5-.5V20.79h-29v99.5a.5.5,0,0,1-.5.5.51.51,0,0,1-.5-.5v-100a.5.5,0,0,1,.5-.5h30a.5.5,0,0,1,.5.5v31.5h11.5a.5.5,0,0,1,.5.5v68A.5.5,0,0,1,110.82,120.79Z" fill="#46adfc"/></g><g id="Stroke-7"><path d="M82.82,28.79h-4a.51.51,0,0,1-.5-.5v-4a.5.5,0,0,1,.5-.5h4a.5.5,0,0,1,.5.5v4A.5.5,0,0,1,82.82,28.79Zm-3.5-1h3v-3h-3Z" fill="#46adfc"/></g><g id="Stroke-8"><path d="M76.82,28.79h-4a.51.51,0,0,1-.5-.5v-4a.5.5,0,0,1,.5-.5h4a.5.5,0,0,1,.5.5v4A.5.5,0,0,1,76.82,28.79Zm-3.5-1h3v-3h-3Z" fill="#46adfc"/></g><g id="Stroke-9"><path d="M82.82,34.79h-4a.51.51,0,0,1-.5-.5v-4a.5.5,0,0,1,.5-.5h4a.5.5,0,0,1,.5.5v4A.5.5,0,0,1,82.82,34.79Zm-3.5-1h3v-3h-3Z" fill="#46adfc"/></g><g id="Stroke-10"><path d="M76.82,34.79h-4a.51.51,0,0,1-.5-.5v-4a.5.5,0,0,1,.5-.5h4a.5.5,0,0,1,.5.5v4A.5.5,0,0,1,76.82,34.79Zm-3.5-1h3v-3h-3Z" fill="#46adfc"/></g><g id="Stroke-11"><path d="M124.82,120.79h-3.54a.5.5,0,0,1-.5-.5v-13.5h-5v13.5a.51.51,0,0,1-.5.5h-4.46a.51.51,0,0,1-.5-.5V52.79H98.82a.51.51,0,0,1-.5-.5v-16a.5.5,0,0,1,.5-.5h26a.5.5,0,0,1,.5.5v84A.5.5,0,0,1,124.82,120.79Zm-3-1h2.54v-83h-25v15h11.5a.5.5,0,0,1,.5.5v67.5h3.46v-13.5a.5.5,0,0,1,.5-.5h6a.5.5,0,0,1,.5.5Z" fill="#46adfc"/></g><g id="Stroke-12"><path d="M102.82,76.79h-30a.51.51,0,0,1-.5-.5.5.5,0,0,1,.5-.5h30a.5.5,0,0,1,.5.5A.5.5,0,0,1,102.82,76.79Z" fill="#46adfc"/></g><g id="Stroke-13"><path d="M102.82,80.79h-30a.51.51,0,0,1-.5-.5.5.5,0,0,1,.5-.5h30a.5.5,0,0,1,.5.5A.5.5,0,0,1,102.82,80.79Z" fill="#46adfc"/></g><g id="Stroke-14"><path d="M102.82,84.79h-30a.51.51,0,0,1-.5-.5.5.5,0,0,1,.5-.5h30a.5.5,0,0,1,.5.5A.5.5,0,0,1,102.82,84.79Z" fill="#46adfc"/></g><g id="Stroke-15"><path d="M102.82,88.79h-30a.51.51,0,0,1-.5-.5.5.5,0,0,1,.5-.5h30a.5.5,0,0,1,.5.5A.5.5,0,0,1,102.82,88.79Z" fill="#46adfc"/></g><g id="Stroke-16"><path d="M102.82,92.79h-30a.51.51,0,0,1-.5-.5.5.5,0,0,1,.5-.5h30a.5.5,0,0,1,.5.5A.5.5,0,0,1,102.82,92.79Z" fill="#46adfc"/></g><g id="Stroke-17"><path d="M68.78,120.79a.5.5,0,0,1-.5-.5V62.79h-11v57.5a.5.5,0,0,1-1,0v-58a.5.5,0,0,1,.5-.5h12a.5.5,0,0,1,.5.5v58A.5.5,0,0,1,68.78,120.79Z" fill="#46adfc"/></g><g id="Stroke-18"><path d="M64.78,70.79h-4a.5.5,0,0,1-.5-.5v-4a.5.5,0,0,1,.5-.5h4a.5.5,0,0,1,.5.5v4A.5.5,0,0,1,64.78,70.79Zm-3.5-1h3v-3h-3Z" fill="#46adfc"/></g><g id="Stroke-19"><path d="M64.78,78.79h-4a.5.5,0,0,1-.5-.5v-4a.5.5,0,0,1,.5-.5h4a.5.5,0,0,1,.5.5v4A.5.5,0,0,1,64.78,78.79Zm-3.5-1h3v-3h-3Z" fill="#46adfc"/></g><g id="Stroke-20"><path d="M170.82,120.79a.51.51,0,0,1-.5-.5v-42a.5.5,0,0,1,.5-.5.5.5,0,0,1,.5.5v42A.5.5,0,0,1,170.82,120.79Z" fill="#46adfc"/></g><g id="Stroke-21"><path d="M164.87,100.79a.53.53,0,0,1-.24-.06L134.88,84.86l-9.76,5.86a.5.5,0,0,1-.51-.86l10-6a.48.48,0,0,1,.49,0l30,16a.49.49,0,0,1,.21.67A.51.51,0,0,1,164.87,100.79Z" fill="#46adfc"/></g><g id="Stroke-22"><path d="M156.87,120.79a.5.5,0,0,1-.5-.5v-24a.5.5,0,0,1,.5-.5.5.5,0,0,1,.5.5v24A.51.51,0,0,1,156.87,120.79Z" fill="#46adfc"/></g><g id="Stroke-23"><path d="M176.87,82.79a.47.47,0,0,1-.3-.1l-15.7-11.78-15.7,11.78a.5.5,0,0,1-.7-.1.5.5,0,0,1,.1-.7l16-12a.48.48,0,0,1,.6,0l16,12a.5.5,0,0,1-.3.9Z" fill="#46adfc"/></g><g id="Stroke-24"><path d="M150.87,92.79a.5.5,0,0,1-.5-.5v-14a.5.5,0,0,1,.5-.5.5.5,0,0,1,.5.5v14A.51.51,0,0,1,150.87,92.79Z" fill="#46adfc"/></g><g id="Stroke-25"><path d="M160.87,88.79h-8a.5.5,0,0,1-.5-.5v-6a.5.5,0,0,1,.5-.5h8a.5.5,0,0,1,.5.5v6A.51.51,0,0,1,160.87,88.79Zm-7.5-1h7v-5h-7Z" fill="#46adfc"/></g><g id="Stroke-26"><path d="M168.87,88.79h-8a.5.5,0,0,1-.5-.5v-6a.5.5,0,0,1,.5-.5h8a.5.5,0,0,1,.5.5v6A.51.51,0,0,1,168.87,88.79Zm-7.5-1h7v-5h-7Z" fill="#46adfc"/></g><g id="Stroke-27"><path d="M148.87,120.79a.5.5,0,0,1-.5-.5v-13.5h-23.5a.5.5,0,0,1-.5-.5.5.5,0,0,1,.5-.5h24a.5.5,0,0,1,.5.5v14A.51.51,0,0,1,148.87,120.79Z" fill="#46adfc"/></g><g id="Stroke-28"><path d="M124.82,120.79a.51.51,0,0,1-.5-.5v-30a.5.5,0,0,1,.5-.5.5.5,0,0,1,.5.5v30A.5.5,0,0,1,124.82,120.79Z" fill="#46adfc"/></g><g id="Stroke-29"><path d="M226.84,120.72a.51.51,0,0,1-.5-.49l0-18a.51.51,0,0,1,.5-.51h0a.5.5,0,0,1,.5.5l0,18a.49.49,0,0,1-.49.5Z" fill="#46adfc"/></g><g id="Stroke-30"><path d="M252.8,106.72a.49.49,0,0,1-.3-.1L236.8,94.85l-15.7,11.77a.5.5,0,0,1-.7-.1.51.51,0,0,1,.1-.7l16-12a.51.51,0,0,1,.6,0l16,12a.5.5,0,0,1,.1.7A.51.51,0,0,1,252.8,106.72Z" fill="#46adfc"/></g><g id="Stroke-31"><path d="M246.8,120.72a.5.5,0,0,1-.5-.5v-18a.51.51,0,0,1,.5-.5.5.5,0,0,1,.5.5v18A.5.5,0,0,1,246.8,120.72Z" fill="#46adfc"/></g><g id="Stroke-32"><path d="M244.8,112.72h-8a.5.5,0,0,1-.5-.5v-6a.51.51,0,0,1,.5-.5h8a.5.5,0,0,1,.5.5v6A.5.5,0,0,1,244.8,112.72Zm-7.5-1h7v-5h-7Z" fill="#46adfc"/></g><g id="Stroke-33"><path d="M236.8,112.72h-8a.5.5,0,0,1-.5-.5v-6a.51.51,0,0,1,.5-.5h8a.5.5,0,0,1,.5.5v6A.5.5,0,0,1,236.8,112.72Zm-7.5-1h7v-5h-7Z" fill="#46adfc"/></g><g id="Stroke-34"><path d="M246.8,90.72a.47.47,0,0,1-.35-.14l-5.65-5.65-5.64,5.65a.51.51,0,0,1-.71,0,.5.5,0,0,1,0-.71l6-6a.51.51,0,0,1,.71,0l6,6a.51.51,0,0,1,0,.71A.5.5,0,0,1,246.8,90.72Z" fill="#46adfc"/></g><g id="Stroke-35"><path d="M244.8,100.72a.5.5,0,0,1-.5-.5v-12a.51.51,0,0,1,.5-.5.5.5,0,0,1,.5.5v12A.5.5,0,0,1,244.8,100.72Z" fill="#46adfc"/></g><g id="Stroke-36"><path d="M236.8,94.72a.5.5,0,0,1-.5-.5v-6a.51.51,0,0,1,.5-.5.5.5,0,0,1,.5.5v6A.5.5,0,0,1,236.8,94.72Z" fill="#46adfc"/></g><g id="Stroke-37"><path d="M242.8,94.72h-4a.5.5,0,0,1-.5-.5v-4a.51.51,0,0,1,.5-.5h4a.5.5,0,0,1,.5.5v4A.5.5,0,0,1,242.8,94.72Zm-3.5-1h3v-3h-3Z" fill="#46adfc"/></g><g id="Stroke-38"><path d="M214.8,120.72a.5.5,0,0,1-.5-.5v-42a.51.51,0,0,1,.5-.5h16a.5.5,0,0,1,.5.5v20a.5.5,0,0,1-.5.5.5.5,0,0,1-.5-.5V78.72h-15v41.5A.5.5,0,0,1,214.8,120.72Z" fill="#46adfc"/></g><g id="Stroke-39"><path d="M222.8,98.72h-4a.5.5,0,0,1-.5-.5v-16a.51.51,0,0,1,.5-.5h4a.5.5,0,0,1,.5.5v16A.5.5,0,0,1,222.8,98.72Zm-3.5-1h3v-15h-3Z" fill="#46adfc"/></g><g id="Stroke-40"><path d="M270.8,121a.5.5,0,0,1-.5-.5V93h-13v27.5a.5.5,0,0,1-.5.5.5.5,0,0,1-.5-.5v-28a.51.51,0,0,1,.5-.5h14a.5.5,0,0,1,.5.5v28A.5.5,0,0,1,270.8,121Z" fill="#46adfc"/></g><g id="Stroke-41"><path d="M292.8,121a.5.5,0,0,1-.5-.5V77H272.8a.5.5,0,0,1-.5-.5V59h-9v33.5a.5.5,0,0,1-.5.5.5.5,0,0,1-.5-.5v-34a.51.51,0,0,1,.5-.5h10a.5.5,0,0,1,.5.5V76h19.5a.5.5,0,0,1,.5.5v44A.5.5,0,0,1,292.8,121Z" fill="#46adfc"/></g><g id="Stroke-42"><path d="M284.8,85h-4a.5.5,0,0,1-.5-.5v-4a.51.51,0,0,1,.5-.5h4a.5.5,0,0,1,.5.5v4A.5.5,0,0,1,284.8,85Zm-3.5-1h3V81h-3Z" fill="#46adfc"/></g><g id="Stroke-43"><path d="M278.8,85h-4a.5.5,0,0,1-.5-.5v-4a.51.51,0,0,1,.5-.5h4a.5.5,0,0,1,.5.5v4A.5.5,0,0,1,278.8,85Zm-3.5-1h3V81h-3Z" fill="#46adfc"/></g><g id="Stroke-44"><path d="M284.8,91h-4a.5.5,0,0,1-.5-.5v-4a.51.51,0,0,1,.5-.5h4a.5.5,0,0,1,.5.5v4A.5.5,0,0,1,284.8,91Zm-3.5-1h3V87h-3Z" fill="#46adfc"/></g><g id="Stroke-45"><path d="M278.8,91h-4a.5.5,0,0,1-.5-.5v-4a.51.51,0,0,1,.5-.5h4a.5.5,0,0,1,.5.5v4A.5.5,0,0,1,278.8,91Zm-3.5-1h3V87h-3Z" fill="#46adfc"/></g><g id="Path-4" data-name="Path"><path d="M284.8,61h-4a.5.5,0,0,1-.5-.5v-16a.51.51,0,0,1,.5-.5h4a.5.5,0,0,1,.5.5v16A.5.5,0,0,1,284.8,61Zm-3.5-1h3V45h-3Z" fill="#46adfc"/></g><g id="Path-5" data-name="Path"><path d="M288.8,77h-16a.5.5,0,0,1-.5-.5V59h-5.5a.5.5,0,0,1-.35-.14.49.49,0,0,1-.15-.36v-18a.51.51,0,0,1,.5-.5h22a.5.5,0,0,1,.5.5v36A.5.5,0,0,1,288.8,77Zm-15.5-1h15V41h-21V58h5.5a.55.55,0,0,1,.36.15.5.5,0,0,1,.14.35Z" fill="#46adfc"/></g><g id="Stroke-47"><path d="M264.8,113h-4a.5.5,0,0,1-.5-.5v-16a.51.51,0,0,1,.5-.5h4a.5.5,0,0,1,.5.5v16A.5.5,0,0,1,264.8,113Zm-3.5-1h3V97h-3Z" fill="#46adfc"/></g><g id="Stroke-48"><path d="M164.87,49h-32a.5.5,0,0,1-.5-.5,4.5,4.5,0,0,1,4-4.47,4.52,4.52,0,0,1,4.48-4h10a4.51,4.51,0,0,1,4.47,4h5.53a4.51,4.51,0,0,1,4.5,4.5A.5.5,0,0,1,164.87,49ZM133.4,48h30.93a3.5,3.5,0,0,0-3.46-3h-6a.5.5,0,0,1-.5-.5,3.5,3.5,0,0,0-3.5-3.5h-10a3.5,3.5,0,0,0-3.5,3.5.5.5,0,0,1-.5.5A3.52,3.52,0,0,0,133.4,48Z" fill="#46adfc"/></g><g id="Stroke-49"><path d="M333,30.79H297a.5.5,0,0,1-.5-.5,4.77,4.77,0,0,1,5-4.5h15a4.51,4.51,0,0,1,4.48-4h2a4.5,4.5,0,0,1,4.47,4h1a4.78,4.78,0,0,1,5,4.5A.51.51,0,0,1,333,30.79Zm-35.46-1h34.92a3.87,3.87,0,0,0-4-3H327a.5.5,0,0,1-.5-.5,3.5,3.5,0,0,0-3.5-3.5h-2a3.5,3.5,0,0,0-3.5,3.5.51.51,0,0,1-.5.5h-15.5A3.86,3.86,0,0,0,297.56,29.79Z" fill="#46adfc"/></g><g id="Fill-50"><path d="M219.15,25.16a.81.81,0,0,0,.06.31l-.06-.33v0" fill="#46adfc"/></g><g id="Fill-51"><path d="M219.15,15.42a.79.79,0,0,0,.16.45c.08-.39.18-.78.29-1.17a.81.81,0,0,0-.45.72" fill="#46adfc"/></g><g id="Fill-52"><path d="M229.7,40.58a.75.75,0,0,0,.16,0c-.32-.19-.63-.39-.93-.59a.8.8,0,0,0,.77.63" fill="#46adfc"/></g><g id="Fill-53"><path d="M259.67,35.18l-.3.37a.83.83,0,0,0,.3-.37" fill="#46adfc"/></g><g id="Fill-54"><path d="M220.78,30a1.16,1.16,0,0,1,0,.18c-.13-.29-.25-.58-.37-.87a.8.8,0,0,1,.41.69" fill="#46adfc"/></g><g id="Fill-55"><path d="M220,26a.82.82,0,1,0-.81-.83l.06.33a.82.82,0,0,0,.75.5" fill="#46adfc"/></g><g id="Fill-56"><path d="M220,19.48a.81.81,0,1,0,.81.81.81.81,0,0,0-.81-.81" fill="#46adfc"/></g><g id="Fill-57"><path d="M220.77,15.42a.81.81,0,0,0-.81-.81.87.87,0,0,0-.36.09c-.11.39-.21.78-.29,1.17a.79.79,0,0,0,.65.36.81.81,0,0,0,.81-.81" fill="#46adfc"/></g><g id="Fill-58"><path d="M224.83,34.08a.82.82,0,1,0,.81.81.81.81,0,0,0-.81-.81" fill="#46adfc"/></g><g id="Fill-59"><path d="M224.83,29.21a.82.82,0,1,0,.81.82.82.82,0,0,0-.81-.82" fill="#46adfc"/></g><g id="Fill-60"><path d="M224.83,24.34a.82.82,0,1,0,.81.82.82.82,0,0,0-.81-.82" fill="#46adfc"/></g><g id="Fill-61"><path d="M224.83,19.48a.81.81,0,1,0,.81.81.81.81,0,0,0-.81-.81" fill="#46adfc"/></g><g id="Fill-62"><path d="M224.83,14.61a.81.81,0,1,0,.81.81.81.81,0,0,0-.81-.81" fill="#46adfc"/></g><g id="Fill-63"><path d="M224.83,9.74a.81.81,0,1,0,.81.81.81.81,0,0,0-.81-.81" fill="#46adfc"/></g><g id="Fill-64"><path d="M225.65,5.68a.81.81,0,0,1-1.5.42c.33-.4.68-.77,1-1.14a.81.81,0,0,1,.47.72" fill="#46adfc"/></g><g id="Fill-65"><path d="M230.51,39.76a.81.81,0,1,0-1.62,0,.58.58,0,0,0,0,.19c.3.2.61.4.93.59a.79.79,0,0,0,.65-.78" fill="#46adfc"/></g><g id="Fill-66"><path d="M229.7,34.08a.82.82,0,1,0,.81.81.81.81,0,0,0-.81-.81" fill="#46adfc"/></g><g id="Fill-67"><path d="M229.7,29.21a.82.82,0,1,0,.81.82.82.82,0,0,0-.81-.82" fill="#46adfc"/></g><g id="Fill-68"><path d="M229.7,24.34a.82.82,0,1,0,.81.82.82.82,0,0,0-.81-.82" fill="#46adfc"/></g><g id="Fill-69"><path d="M229.7,19.48a.81.81,0,1,0,.81.81.81.81,0,0,0-.81-.81" fill="#46adfc"/></g><g id="Fill-70"><path d="M229.7,14.61a.81.81,0,1,0,.81.81.81.81,0,0,0-.81-.81" fill="#46adfc"/></g><g id="Fill-71"><path d="M229.7,9.74a.81.81,0,1,0,.81.81.81.81,0,0,0-.81-.81" fill="#46adfc"/></g><g id="Fill-72"><path d="M229.7,4.87a.81.81,0,1,0,.81.81.81.81,0,0,0-.81-.81" fill="#46adfc"/></g><g id="Fill-73"><path d="M230.51.84a.81.81,0,0,1-.81.78.85.85,0,0,1-.35-.08c.38-.25.77-.48,1.16-.7" fill="#46adfc"/></g><g id="Fill-74"><path d="M234.57,39a.82.82,0,1,0,.81.81.81.81,0,0,0-.81-.81" fill="#46adfc"/></g><g id="Fill-75"><path d="M234.57,34.08a.82.82,0,1,0,.81.81.81.81,0,0,0-.81-.81" fill="#46adfc"/></g><g id="Fill-76"><path d="M234.57,29.21a.82.82,0,1,0,.81.82.82.82,0,0,0-.81-.82" fill="#46adfc"/></g><g id="Fill-77"><path d="M234.57,24.34a.82.82,0,1,0,.81.82.82.82,0,0,0-.81-.82" fill="#46adfc"/></g><g id="Fill-78"><path d="M234.57,19.48a.81.81,0,1,0,.81.81.81.81,0,0,0-.81-.81" fill="#46adfc"/></g><g id="Fill-79"><path d="M234.57,14.61a.81.81,0,1,0,.81.81.81.81,0,0,0-.81-.81" fill="#46adfc"/></g><g id="Fill-80"><path d="M234.57,9.74a.81.81,0,1,0,.81.81.81.81,0,0,0-.81-.81" fill="#46adfc"/></g><g id="Fill-81"><path d="M234.57,4.87a.81.81,0,1,0,.81.81.81.81,0,0,0-.81-.81" fill="#46adfc"/></g><g id="Fill-82"><path d="M234.57,0a.81.81,0,1,0,.81.81.81.81,0,0,0-.81-.81" fill="#46adfc"/></g><g id="Fill-83"><path d="M239.44,39a.82.82,0,1,0,.81.81.81.81,0,0,0-.81-.81" fill="#46adfc"/></g><g id="Fill-84"><path d="M239.44,34.08a.82.82,0,1,0,.81.81.81.81,0,0,0-.81-.81" fill="#46adfc"/></g><g id="Fill-85"><path d="M239.44,29.21a.82.82,0,1,0,.81.82.82.82,0,0,0-.81-.82" fill="#46adfc"/></g><g id="Fill-86"><path d="M239.44,24.34a.82.82,0,1,0,.81.82.82.82,0,0,0-.81-.82" fill="#46adfc"/></g><g id="Fill-87"><path d="M239.44,19.48a.81.81,0,1,0,.81.81.81.81,0,0,0-.81-.81" fill="#46adfc"/></g><g id="Fill-88"><path d="M239.44,14.61a.81.81,0,1,0,.81.81.81.81,0,0,0-.81-.81" fill="#46adfc"/></g><g id="Fill-89"><path d="M239.44,9.74a.81.81,0,1,0,.81.81.81.81,0,0,0-.81-.81" fill="#46adfc"/></g><g id="Fill-90"><path d="M239.44,4.87a.81.81,0,1,0,.81.81.81.81,0,0,0-.81-.81" fill="#46adfc"/></g><g id="Fill-91"><path d="M239.44,0a.81.81,0,1,0,.81.81.81.81,0,0,0-.81-.81" fill="#46adfc"/></g><g id="Fill-92"><path d="M244.31,39a.82.82,0,1,0,.81.81.82.82,0,0,0-.81-.81" fill="#46adfc"/></g><g id="Fill-93"><path d="M244.31,34.08a.82.82,0,1,0,.81.81.82.82,0,0,0-.81-.81" fill="#46adfc"/></g><g id="Fill-94"><path d="M244.31,29.21a.82.82,0,1,0,.81.82.82.82,0,0,0-.81-.82" fill="#46adfc"/></g><g id="Fill-95"><path d="M244.31,24.34a.82.82,0,1,0,.81.82.82.82,0,0,0-.81-.82" fill="#46adfc"/></g><g id="Fill-96"><path d="M244.31,19.48a.81.81,0,1,0,.81.81.82.82,0,0,0-.81-.81" fill="#46adfc"/></g><g id="Fill-97"><path d="M244.31,14.61a.81.81,0,1,0,.81.81.82.82,0,0,0-.81-.81" fill="#46adfc"/></g><g id="Fill-98"><path d="M244.31,9.74a.81.81,0,1,0,.81.81.82.82,0,0,0-.81-.81" fill="#46adfc"/></g><g id="Fill-99"><path d="M244.31,4.87a.81.81,0,1,0,.81.81.82.82,0,0,0-.81-.81" fill="#46adfc"/></g><g id="Fill-100"><path d="M244.31,0a.82.82,0,0,0-.82.81.82.82,0,0,0,1.63,0,.81.81,0,0,0-.81-.81" fill="#46adfc"/></g><g id="Fill-101"><path d="M249.18,39a.82.82,0,1,0,.81.81.82.82,0,0,0-.81-.81" fill="#46adfc"/></g><g id="Fill-102"><path d="M249.18,34.08a.82.82,0,1,0,.81.81.82.82,0,0,0-.81-.81" fill="#46adfc"/></g><g id="Fill-103"><path d="M249.18,29.21A.82.82,0,1,0,250,30a.82.82,0,0,0-.81-.82" fill="#46adfc"/></g><g id="Fill-104"><path d="M249.18,24.34a.82.82,0,1,0,.81.82.82.82,0,0,0-.81-.82" fill="#46adfc"/></g><g id="Fill-105"><path d="M249.18,19.48a.81.81,0,1,0,.81.81.82.82,0,0,0-.81-.81" fill="#46adfc"/></g><g id="Fill-106"><path d="M249.18,14.61a.81.81,0,1,0,.81.81.82.82,0,0,0-.81-.81" fill="#46adfc"/></g><g id="Fill-107"><path d="M249.18,9.74a.81.81,0,1,0,.81.81.82.82,0,0,0-.81-.81" fill="#46adfc"/></g><g id="Fill-108"><path d="M249.18,4.87a.81.81,0,1,0,.81.81.82.82,0,0,0-.81-.81" fill="#46adfc"/></g><g id="Fill-109"><path d="M249.18,0a.82.82,0,0,0-.82.81.82.82,0,0,0,1.63,0,.81.81,0,0,0-.81-.81" fill="#46adfc"/></g><g id="Fill-110"><path d="M254,39a.81.81,0,0,0-.36,1.53l1.16-.77A.81.81,0,0,0,254,39" fill="#46adfc"/></g><g id="Fill-111"><path d="M254,34.08a.82.82,0,1,0,.82.81.82.82,0,0,0-.82-.81" fill="#46adfc"/></g><g id="Fill-112"><path d="M254,29.21a.82.82,0,1,0,.82.82.82.82,0,0,0-.82-.82" fill="#46adfc"/></g><g id="Fill-113"><path d="M254,24.34a.82.82,0,1,0,.82.82.82.82,0,0,0-.82-.82" fill="#46adfc"/></g><g id="Fill-114"><path d="M254,19.48a.81.81,0,1,0,.82.81.81.81,0,0,0-.82-.81" fill="#46adfc"/></g><g id="Fill-115"><path d="M254,14.61a.81.81,0,1,0,.82.81.81.81,0,0,0-.82-.81" fill="#46adfc"/></g><g id="Fill-116"><path d="M254,9.74a.81.81,0,1,0,.82.81.81.81,0,0,0-.82-.81" fill="#46adfc"/></g><g id="Fill-117"><path d="M254,4.87a.81.81,0,1,0,.82.81.81.81,0,0,0-.82-.81" fill="#46adfc"/></g><g id="Fill-118"><path d="M254.17,1.6l-.12,0a.81.81,0,0,1-.77-.57c.3.18.6.36.89.55" fill="#46adfc"/></g><g id="Fill-119"><path d="M258.91,34.08a.82.82,0,0,0,0,1.63.8.8,0,0,0,.46-.16l.3-.37a.94.94,0,0,0,.06-.29.82.82,0,0,0-.82-.81" fill="#46adfc"/></g><g id="Fill-120"><path d="M258.91,29.21a.82.82,0,1,0,.82.82.82.82,0,0,0-.82-.82" fill="#46adfc"/></g><g id="Fill-121"><path d="M258.91,24.34a.82.82,0,1,0,.82.82.82.82,0,0,0-.82-.82" fill="#46adfc"/></g><g id="Fill-122"><path d="M258.91,19.48a.81.81,0,1,0,.82.81.81.81,0,0,0-.82-.81" fill="#46adfc"/></g><g id="Fill-123"><path d="M258.91,14.61a.81.81,0,1,0,.82.81.81.81,0,0,0-.82-.81" fill="#46adfc"/></g><g id="Fill-124"><path d="M258.91,9.74a.81.81,0,1,0,.82.81.81.81,0,0,0-.82-.81" fill="#46adfc"/></g><g id="Fill-125"><path d="M259.44,6.29a.8.8,0,0,1-.52.2.82.82,0,0,1-.82-.81.8.8,0,0,1,.27-.59c.37.39.73.78,1.07,1.2" fill="#46adfc"/></g><g id="Fill-126"><path d="M264.37,24.6c-.07.43-.16.87-.25,1.29a.76.76,0,0,1-.33.08.81.81,0,1,1,0-1.62.78.78,0,0,1,.58.25" fill="#46adfc"/></g><g id="Fill-127"><path d="M263.78,19.48a.81.81,0,1,0,.81.81.81.81,0,0,0-.81-.81" fill="#46adfc"/></g><g id="Fill-128"><path d="M264.18,16.12a.88.88,0,0,1-.39.11.81.81,0,1,1,0-1.62h0c.14.5.27,1,.38,1.51" fill="#46adfc"/></g><g id="Stroke-129"><path d="M36.5,97.54A.5.5,0,0,1,36,97V41.54a.5.5,0,1,1,1,0V97A.5.5,0,0,1,36.5,97.54Z" fill="#46adfc"/></g><g id="Stroke-130"><path d="M36.5,73.54a.47.47,0,0,1-.35-.15l-4.5-4.5a.5.5,0,0,1,0-.71.5.5,0,0,1,.7,0l4.5,4.5a.5.5,0,0,1,0,.71A.47.47,0,0,1,36.5,73.54Z" fill="#46adfc"/></g><g id="Stroke-131"><path d="M36.5,67.54a.47.47,0,0,1-.35-.15l-4.5-4.5a.5.5,0,0,1,0-.71.5.5,0,0,1,.7,0l4.5,4.5a.5.5,0,0,1,0,.71A.47.47,0,0,1,36.5,67.54Z" fill="#46adfc"/></g><g id="Stroke-132"><path d="M36.5,80a.47.47,0,0,1-.35-.15l-4.5-4.5a.5.5,0,0,1,0-.71.5.5,0,0,1,.7,0l4.5,4.5a.5.5,0,0,1,0,.71A.47.47,0,0,1,36.5,80Z" fill="#46adfc"/></g><g id="Stroke-133"><path d="M36.5,80a.47.47,0,0,1-.35-.15l-4.5-4.5a.5.5,0,0,1,0-.71.5.5,0,0,1,.7,0l4.5,4.5a.5.5,0,0,1,0,.71A.47.47,0,0,1,36.5,80Z" fill="#46adfc"/></g><g id="Stroke-134"><path d="M36.5,88c-6.17,0-11-10.32-11-23.5S30.33,41,36.5,41s11,10.32,11,23.5S42.67,88,36.5,88Zm0-46c-5.61,0-10,9.88-10,22.5S30.89,87,36.5,87s10-9.89,10-22.5S42.11,42,36.5,42Z" fill="#46adfc"/></g><g id="Stroke-135"><path d="M312.8,112.47h-.5v-47h.5c6.16,0,11,10.32,11,23.5S319,112.47,312.8,112.47Zm.5-46v45c5.36-.57,9.5-10.23,9.5-22.47S318.66,67.06,313.3,66.49Z" fill="#46adfc"/></g><g id="Stroke-136"><path d="M312.8,122a.5.5,0,0,1-.5-.5V81a.5.5,0,0,1,.5-.5.5.5,0,0,1,.5.5v40.5A.51.51,0,0,1,312.8,122Z" fill="#46adfc"/></g><g id="Stroke-137"><path d="M312.8,98a.51.51,0,0,1-.36-.15l-4.5-4.5a.5.5,0,1,1,.71-.71l4.5,4.5a.5.5,0,0,1,0,.71A.5.5,0,0,1,312.8,98Z" fill="#46adfc"/></g><g id="Stroke-138"><path d="M312.8,92a.51.51,0,0,1-.36-.15l-4.5-4.5a.5.5,0,1,1,.71-.71l4.5,4.5a.5.5,0,0,1,0,.71A.5.5,0,0,1,312.8,92Z" fill="#46adfc"/></g><g id="Stroke-139"><path d="M312.8,104.47a.51.51,0,0,1-.36-.15l-4.5-4.5a.5.5,0,1,1,.71-.71l4.5,4.5a.5.5,0,0,1,0,.71A.5.5,0,0,1,312.8,104.47Z" fill="#46adfc"/></g><g id="Stroke-140"><path d="M312.8,104.47a.51.51,0,0,1-.36-.15l-4.5-4.5a.5.5,0,1,1,.71-.71l4.5,4.5a.5.5,0,0,1,0,.71A.5.5,0,0,1,312.8,104.47Z" fill="#46adfc"/></g><g id="Stroke-141"><path d="M312.8,112.47c-6.17,0-11-10.32-11-23.5s4.83-23.5,11-23.5a.5.5,0,0,1,.5.5v46A.51.51,0,0,1,312.8,112.47Zm-.5-46c-5.37.57-9.5,10.24-9.5,22.48s4.13,21.9,9.5,22.47Z" fill="#46adfc"/></g><g id="Stroke-142"><path d="M44.5,104.43a.47.47,0,0,1-.35-.15l-1.65-1.65-1.65,1.65a.48.48,0,0,1-.7,0l-1.65-1.65-1.65,1.65a.48.48,0,0,1-.7,0l-1.65-1.65-1.65,1.65a.48.48,0,0,1-.7,0l-1.65-1.65-1.65,1.65a.48.48,0,0,1-.7,0,.5.5,0,0,1,0-.71l2-2a.5.5,0,0,1,.7,0l1.65,1.65,1.65-1.65a.5.5,0,0,1,.7,0l1.65,1.65,1.65-1.65a.5.5,0,0,1,.7,0l1.65,1.65,1.65-1.65a.5.5,0,0,1,.7,0l2,2a.5.5,0,0,1,0,.71A.47.47,0,0,1,44.5,104.43Z" fill="#46adfc"/></g><g id="Stroke-143"><path d="M40.5,108.43a.47.47,0,0,1-.35-.15l-1.65-1.65-1.65,1.65a.48.48,0,0,1-.7,0l-1.65-1.65-1.65,1.65a.48.48,0,0,1-.7,0,.5.5,0,0,1,0-.71l2-2a.5.5,0,0,1,.7,0l1.65,1.65,1.65-1.65a.5.5,0,0,1,.7,0l2,2a.5.5,0,0,1,0,.71A.47.47,0,0,1,40.5,108.43Z" fill="#46adfc"/></g><g id="Stroke-145"><path d="M129.06,29.12h-.26a.5.5,0,0,1-.48-.52.51.51,0,0,1,.51-.48h.23c.25,0,.5,0,.74,0a.5.5,0,0,1,.09,1A7.56,7.56,0,0,1,129.06,29.12Zm-2.26-.31-.14,0a9.67,9.67,0,0,1-1-.36.5.5,0,0,1,.39-.92c.3.12.6.23.91.32a.5.5,0,0,1,.35.61A.49.49,0,0,1,126.8,28.81Zm5-.16a.5.5,0,0,1-.47-.34.51.51,0,0,1,.31-.64,6.82,6.82,0,0,0,.88-.37.5.5,0,1,1,.45.89,8.85,8.85,0,0,1-1,.43A.51.51,0,0,1,131.84,28.65Zm-7.79-1.2a.49.49,0,0,1-.3-.1,7.87,7.87,0,0,1-.82-.71.48.48,0,0,1,0-.7.49.49,0,0,1,.7,0,6.32,6.32,0,0,0,.74.63.5.5,0,0,1,.09.7A.48.48,0,0,1,124.05,27.45Zm10.44-.34a.52.52,0,0,1-.38-.17.51.51,0,0,1,0-.71,6.25,6.25,0,0,0,.69-.67.5.5,0,0,1,.71,0,.48.48,0,0,1,0,.7,7,7,0,0,1-.78.76A.49.49,0,0,1,134.49,27.11ZM122,25.19a.51.51,0,0,1-.43-.23,8.82,8.82,0,0,1-.51-1,.5.5,0,0,1,.9-.42,8.68,8.68,0,0,0,.46.85.49.49,0,0,1-.16.69A.48.48,0,0,1,122,25.19Zm14.42-.46a.53.53,0,0,1-.24-.06A.51.51,0,0,1,136,24a8.59,8.59,0,0,0,.4-.87.5.5,0,1,1,.93.36,9.57,9.57,0,0,1-.45,1A.51.51,0,0,1,136.41,24.73Zm-15.54-2.39a.5.5,0,0,1-.49-.4,9.94,9.94,0,0,1-.13-1.08.49.49,0,0,1,.46-.53.51.51,0,0,1,.54.47,7.47,7.47,0,0,0,.12.95.51.51,0,0,1-.4.59Zm16.46-.53h-.06a.5.5,0,0,1-.43-.56,7.73,7.73,0,0,0,.06-1,.52.52,0,0,1,.5-.53.48.48,0,0,1,.5.47h-.5l.5,0a9.69,9.69,0,0,1-.07,1.1A.51.51,0,0,1,137.33,21.81Zm-16.47-2.52h-.09a.5.5,0,0,1-.4-.58,9.64,9.64,0,0,1,.26-1.06.5.5,0,0,1,1,.3,6,6,0,0,0-.23.93A.51.51,0,0,1,120.86,19.29Zm16.27-.59a.5.5,0,0,1-.48-.37,7.07,7.07,0,0,0-.3-.92.5.5,0,0,1,.93-.37,9.71,9.71,0,0,1,.34,1,.5.5,0,0,1-.36.61ZM122,16.43a.51.51,0,0,1-.43-.76,7.94,7.94,0,0,1,.63-.89.5.5,0,1,1,.78.62,7.48,7.48,0,0,0-.56.79A.49.49,0,0,1,122,16.43Zm13.88-.5a.49.49,0,0,1-.41-.21,7.27,7.27,0,0,0-.61-.74.5.5,0,1,1,.74-.68,9.24,9.24,0,0,1,.68.84.51.51,0,0,1-.11.7A.52.52,0,0,1,135.84,15.93ZM124,14.16a.5.5,0,0,1-.3-.9,7.82,7.82,0,0,1,.9-.6.5.5,0,0,1,.68.17.51.51,0,0,1-.17.69,6.23,6.23,0,0,0-.8.54A.6.6,0,0,1,124,14.16Zm9.62-.35a.48.48,0,0,1-.28-.08c-.27-.17-.54-.33-.83-.48a.5.5,0,1,1,.44-.89,8.78,8.78,0,0,1,.94.54.5.5,0,0,1-.27.91Zm-6.89-1a.5.5,0,0,1-.14-1,9.73,9.73,0,0,1,1.07-.24.51.51,0,0,1,.57.42.51.51,0,0,1-.42.57,7.51,7.51,0,0,0-.94.21Zm4.06-.14h-.1a7.52,7.52,0,0,0-.95-.15.5.5,0,0,1-.46-.54.48.48,0,0,1,.54-.45,7.59,7.59,0,0,1,1.08.16.49.49,0,0,1,.38.59A.5.5,0,0,1,130.8,12.64Z" fill="#46adfc"/></g><g id="Stroke-146"><path d="M.5,106.79a.5.5,0,0,1-.5-.5v-8a.5.5,0,0,1,.5-.5.5.5,0,0,1,.5.5v8A.5.5,0,0,1,.5,106.79Z" fill="#46adfc"/></g><g id="Stroke-147"><path d="M.5,114.79a.5.5,0,0,1-.5-.5v-6a.5.5,0,0,1,.5-.5.5.5,0,0,1,.5.5v6A.5.5,0,0,1,.5,114.79Z" fill="#46adfc"/></g><g id="Stroke-148"><path d="M4.5,102.79a.5.5,0,0,1-.5-.5v-4a.5.5,0,0,1,1,0v4A.5.5,0,0,1,4.5,102.79Z" fill="#46adfc"/></g><g id="Stroke-149"><path d="M4.5,108.79a.5.5,0,0,1-.5-.5v-4a.5.5,0,0,1,1,0v4A.5.5,0,0,1,4.5,108.79Z" fill="#46adfc"/></g><g id="Stroke-150"><path d="M4.5,114.79a.5.5,0,0,1-.5-.5v-4a.5.5,0,0,1,1,0v4A.5.5,0,0,1,4.5,114.79Z" fill="#46adfc"/></g><g id="Stroke-151"><path d="M12.5,114.79a.5.5,0,0,1-.5-.5v-6a.5.5,0,0,1,1,0v6A.5.5,0,0,1,12.5,114.79Z" fill="#46adfc"/></g><g id="Stroke-152"><path d="M12.5,106.79a.5.5,0,0,1-.5-.5v-8a.5.5,0,0,1,1,0v8A.5.5,0,0,1,12.5,106.79Z" fill="#46adfc"/></g><g id="Stroke-153"><path d="M16.5,102.79a.5.5,0,0,1-.5-.5v-4a.5.5,0,0,1,1,0v4A.5.5,0,0,1,16.5,102.79Z" fill="#46adfc"/></g><g id="Stroke-154"><path d="M16.5,108.79a.5.5,0,0,1-.5-.5v-4a.5.5,0,0,1,1,0v4A.5.5,0,0,1,16.5,108.79Z" fill="#46adfc"/></g><g id="Stroke-155"><path d="M16.5,114.79a.5.5,0,0,1-.5-.5v-4a.5.5,0,0,1,1,0v4A.5.5,0,0,1,16.5,114.79Z" fill="#46adfc"/></g><g id="Stroke-156"><path d="M8.5,114.79a.5.5,0,0,1-.5-.5v-2a.5.5,0,0,1,1,0v2A.5.5,0,0,1,8.5,114.79Z" fill="#46adfc"/></g><g id="Stroke-157"><path d="M8.5,110.79a.5.5,0,0,1-.5-.5v-12a.5.5,0,0,1,1,0v12A.5.5,0,0,1,8.5,110.79Z" fill="#46adfc"/></g><g id="Stroke-158"><path d="M332.79,106.79a.5.5,0,0,1-.5-.5v-8a.5.5,0,0,1,1,0v8A.5.5,0,0,1,332.79,106.79Z" fill="#46adfc"/></g><g id="Stroke-159"><path d="M332.79,114.79a.5.5,0,0,1-.5-.5v-6a.5.5,0,0,1,1,0v6A.5.5,0,0,1,332.79,114.79Z" fill="#46adfc"/></g><g id="Stroke-160"><path d="M336.79,102.79a.5.5,0,0,1-.5-.5v-4a.5.5,0,0,1,1,0v4A.5.5,0,0,1,336.79,102.79Z" fill="#46adfc"/></g><g id="Stroke-161"><path d="M336.79,108.79a.5.5,0,0,1-.5-.5v-4a.5.5,0,0,1,1,0v4A.5.5,0,0,1,336.79,108.79Z" fill="#46adfc"/></g><g id="Stroke-162"><path d="M336.79,114.79a.5.5,0,0,1-.5-.5v-4a.5.5,0,0,1,1,0v4A.5.5,0,0,1,336.79,114.79Z" fill="#46adfc"/></g><g id="Stroke-163"><path d="M344.79,114.79a.5.5,0,0,1-.5-.5v-6a.5.5,0,0,1,1,0v6A.5.5,0,0,1,344.79,114.79Z" fill="#46adfc"/></g><g id="Stroke-164"><path d="M344.79,106.79a.5.5,0,0,1-.5-.5v-8a.5.5,0,0,1,1,0v8A.5.5,0,0,1,344.79,106.79Z" fill="#46adfc"/></g><g id="Stroke-165"><path d="M348.79,102.79a.5.5,0,0,1-.5-.5v-4a.5.5,0,0,1,1,0v4A.5.5,0,0,1,348.79,102.79Z" fill="#46adfc"/></g><g id="Stroke-166"><path d="M348.79,108.79a.5.5,0,0,1-.5-.5v-4a.5.5,0,0,1,1,0v4A.5.5,0,0,1,348.79,108.79Z" fill="#46adfc"/></g><g id="Stroke-167"><path d="M348.79,114.79a.5.5,0,0,1-.5-.5v-4a.5.5,0,0,1,1,0v4A.5.5,0,0,1,348.79,114.79Z" fill="#46adfc"/></g><g id="Stroke-168"><path d="M340.79,114.79a.5.5,0,0,1-.5-.5v-2a.5.5,0,0,1,1,0v2A.5.5,0,0,1,340.79,114.79Z" fill="#46adfc"/></g><g id="Stroke-169"><path d="M340.79,110.79a.5.5,0,0,1-.5-.5v-12a.5.5,0,0,1,1,0v12A.5.5,0,0,1,340.79,110.79Z" fill="#46adfc"/></g><g id="Stroke-170"><path d="M266.78,40.82a.23.23,0,0,1-.17-.08.24.24,0,0,1,0-.35l.26-.26a.25.25,0,1,1,.35.35l-.26.26A.25.25,0,0,1,266.78,40.82Z" fill="#46adfc"/></g><g id="Stroke-171"><path d="M266.78,44a.25.25,0,0,1-.17-.08.24.24,0,0,1,0-.35L270,40.13a.25.25,0,0,1,.36,0,.24.24,0,0,1,0,.35L267,43.92A.25.25,0,0,1,266.78,44Z" fill="#46adfc"/></g><g id="Stroke-172"><path d="M266.78,47.18a.23.23,0,0,1-.17-.08.24.24,0,0,1,0-.35l6.61-6.62a.25.25,0,0,1,.36,0,.24.24,0,0,1,0,.35L267,47.1A.25.25,0,0,1,266.78,47.18Z" fill="#46adfc"/></g><g id="Stroke-173"><path d="M266.78,50.36a.23.23,0,0,1-.17-.08.24.24,0,0,1,0-.35l9.8-9.8a.25.25,0,1,1,.35.35l-9.8,9.8A.25.25,0,0,1,266.78,50.36Z" fill="#46adfc"/></g><g id="Stroke-174"><path d="M266.78,53.54a.25.25,0,0,1-.17-.08.24.24,0,0,1,0-.35l13-13a.25.25,0,0,1,.36,0,.24.24,0,0,1,0,.35l-13,13A.25.25,0,0,1,266.78,53.54Z" fill="#46adfc"/></g><g id="Stroke-175"><path d="M266.78,56.73a.23.23,0,0,1-.17-.08.24.24,0,0,1,0-.35l16.17-16.17a.25.25,0,1,1,.35.35L267,56.65A.25.25,0,0,1,266.78,56.73Z" fill="#46adfc"/></g><g id="Stroke-176"><path d="M268.13,58.56a.23.23,0,0,1-.17-.08.24.24,0,0,1,0-.35l12.65-12.65a.25.25,0,0,1,.35.35L268.31,58.48A.25.25,0,0,1,268.13,58.56Z" fill="#46adfc"/></g><g id="Stroke-177"><path d="M282.13,44.56a.23.23,0,0,1-.17-.08.24.24,0,0,1,0-.35l4-4a.25.25,0,1,1,.35.35l-4,4A.25.25,0,0,1,282.13,44.56Z" fill="#46adfc"/></g><g id="Stroke-178"><path d="M284.78,45.09a.23.23,0,0,1-.17-.08.24.24,0,0,1,0-.35l4-4A.25.25,0,0,1,289,41l-4,4A.25.25,0,0,1,284.78,45.09Z" fill="#46adfc"/></g><g id="Stroke-179"><path d="M271.31,58.56a.27.27,0,0,1-.18-.08.26.26,0,0,1,0-.35l9.48-9.47A.25.25,0,0,1,281,49l-9.47,9.47A.25.25,0,0,1,271.31,58.56Z" fill="#46adfc"/></g><g id="Stroke-180"><path d="M284.78,48.27a.23.23,0,0,1-.17-.08.24.24,0,0,1,0-.35l4-4a.25.25,0,0,1,.35.35l-4,4A.25.25,0,0,1,284.78,48.27Z" fill="#46adfc"/></g><g id="Stroke-181"><path d="M272.78,60.27a.23.23,0,0,1-.17-.08.24.24,0,0,1,0-.35l8-8a.25.25,0,0,1,.35.35l-8,8A.25.25,0,0,1,272.78,60.27Z" fill="#46adfc"/></g><g id="Stroke-182"><path d="M284.78,51.46a.23.23,0,0,1-.17-.08.24.24,0,0,1,0-.35l4-4a.25.25,0,0,1,.35.35l-4,4A.25.25,0,0,1,284.78,51.46Z" fill="#46adfc"/></g><g id="Stroke-183"><path d="M272.78,63.46a.23.23,0,0,1-.17-.08.24.24,0,0,1,0-.35l8-8a.25.25,0,0,1,.35.35l-8,8A.25.25,0,0,1,272.78,63.46Z" fill="#46adfc"/></g><g id="Stroke-184"><path d="M284.78,54.64a.23.23,0,0,1-.17-.08.24.24,0,0,1,0-.35l4-4a.25.25,0,0,1,.35.35l-4,4A.25.25,0,0,1,284.78,54.64Z" fill="#46adfc"/></g><g id="Stroke-185"><path d="M272.78,66.64a.23.23,0,0,1-.17-.08.24.24,0,0,1,0-.35l8-8a.25.25,0,0,1,.35.35l-8,8A.25.25,0,0,1,272.78,66.64Z" fill="#46adfc"/></g><g id="Stroke-186"><path d="M284.78,57.82a.23.23,0,0,1-.17-.08.24.24,0,0,1,0-.35l4-4a.25.25,0,0,1,.35.35l-4,4A.25.25,0,0,1,284.78,57.82Z" fill="#46adfc"/></g><g id="Stroke-187"><path d="M272.78,69.82a.23.23,0,0,1-.17-.08.24.24,0,0,1,0-.35l9.26-9.26a.25.25,0,1,1,.35.35L273,69.74A.25.25,0,0,1,272.78,69.82Z" fill="#46adfc"/></g><g id="Stroke-188"><path d="M272.78,73a.23.23,0,0,1-.17-.08.24.24,0,0,1,0-.35l16-16a.25.25,0,0,1,.35.35l-16,16A.25.25,0,0,1,272.78,73Z" fill="#46adfc"/></g><g id="Stroke-189"><path d="M272.78,76.18a.23.23,0,0,1-.17-.08.24.24,0,0,1,0-.35l16-16a.25.25,0,0,1,.35.35l-16,16A.25.25,0,0,1,272.78,76.18Z" fill="#46adfc"/></g><g id="Stroke-190"><path d="M275.58,76.56a.23.23,0,0,1-.17-.08.24.24,0,0,1,0-.35l13.2-13.2a.25.25,0,0,1,.35.35l-13.2,13.2A.25.25,0,0,1,275.58,76.56Z" fill="#46adfc"/></g><g id="Stroke-191"><path d="M278.77,76.56a.27.27,0,0,1-.18-.08.26.26,0,0,1,0-.35l10-10a.24.24,0,0,1,.35,0,.25.25,0,0,1,0,.36l-10,10A.25.25,0,0,1,278.77,76.56Z" fill="#46adfc"/></g><g id="Stroke-192"><path d="M281.54,76.56a.23.23,0,0,1-.17-.08.24.24,0,0,1,0-.35l7.24-7.24a.25.25,0,0,1,.35.35l-7.24,7.24A.25.25,0,0,1,281.54,76.56Z" fill="#46adfc"/></g><g id="Stroke-193"><path d="M284.73,76.56a.27.27,0,0,1-.18-.08.26.26,0,0,1,0-.35l4.06-4a.25.25,0,0,1,.35.35l-4,4A.27.27,0,0,1,284.73,76.56Z" fill="#46adfc"/></g><g id="Stroke-194"><path d="M287.91,76.56a.23.23,0,0,1-.17-.08.24.24,0,0,1,0-.35l.87-.87a.25.25,0,0,1,.35.35l-.87.87A.25.25,0,0,1,287.91,76.56Z" fill="#46adfc"/></g><g id="Stroke-195"><path d="M98.82,39.14a.25.25,0,0,1-.17-.08.24.24,0,0,1,0-.35l2.6-2.6a.25.25,0,1,1,.35.35L99,39.06A.25.25,0,0,1,98.82,39.14Z" fill="#46adfc"/></g><g id="Stroke-196"><path d="M98.82,42.32a.25.25,0,0,1-.17-.08.24.24,0,0,1,0-.35l5.78-5.78a.25.25,0,1,1,.35.35L99,42.24A.25.25,0,0,1,98.82,42.32Z" fill="#46adfc"/></g><g id="Stroke-197"><path d="M98.82,45.52a.25.25,0,0,1-.17-.08.24.24,0,0,1,0-.35l9-9a.25.25,0,1,1,.35.35l-9,9A.25.25,0,0,1,98.82,45.52Z" fill="#46adfc"/></g><g id="Stroke-198"><path d="M98.82,48.7a.25.25,0,0,1-.17-.08.24.24,0,0,1,0-.35l12.16-12.16a.25.25,0,1,1,.35.35L99,48.62A.25.25,0,0,1,98.82,48.7Z" fill="#46adfc"/></g><g id="Stroke-199"><path d="M98.82,51.88a.25.25,0,0,1-.17-.08.24.24,0,0,1,0-.35L114,36.11a.25.25,0,0,1,.35.35L99,51.8A.25.25,0,0,1,98.82,51.88Z" fill="#46adfc"/></g><g id="Stroke-200"><path d="M101.34,52.54a.25.25,0,0,1-.17-.08.24.24,0,0,1,0-.35l16-16a.25.25,0,1,1,.35.35l-16,16A.25.25,0,0,1,101.34,52.54Z" fill="#46adfc"/></g><g id="Stroke-201"><path d="M104.52,52.54a.25.25,0,0,1-.17-.08.24.24,0,0,1,0-.35l16-16a.25.25,0,1,1,.35.35l-16,16A.25.25,0,0,1,104.52,52.54Z" fill="#46adfc"/></g><g id="Stroke-202"><path d="M107.7,52.54a.25.25,0,0,1-.17-.08.24.24,0,0,1,0-.35l16-16a.25.25,0,1,1,.35.35l-16,16A.25.25,0,0,1,107.7,52.54Z" fill="#46adfc"/></g><g id="Stroke-203"><path d="M110.82,52.6a.25.25,0,0,1-.17-.08.24.24,0,0,1,0-.35l14-14a.25.25,0,1,1,.35.35l-14,14A.25.25,0,0,1,110.82,52.6Z" fill="#46adfc"/></g><g id="Stroke-204"><path d="M110.82,55.78a.25.25,0,0,1-.17-.08.24.24,0,0,1,0-.35l14-14a.25.25,0,0,1,.35.35l-14,14A.25.25,0,0,1,110.82,55.78Z" fill="#46adfc"/></g><g id="Stroke-205"><path d="M110.82,59a.25.25,0,0,1-.17-.08.24.24,0,0,1,0-.35l14-14a.25.25,0,1,1,.35.35l-14,14A.25.25,0,0,1,110.82,59Z" fill="#46adfc"/></g><g id="Stroke-206"><path d="M110.82,62.14a.25.25,0,0,1-.17-.08.24.24,0,0,1,0-.35l14-14a.25.25,0,0,1,.35.35l-14,14A.25.25,0,0,1,110.82,62.14Z" fill="#46adfc"/></g><g id="Stroke-207"><path d="M110.82,65.33a.25.25,0,0,1-.17-.08.24.24,0,0,1,0-.35l14-14a.25.25,0,1,1,.35.35l-14,14A.25.25,0,0,1,110.82,65.33Z" fill="#46adfc"/></g><g id="Stroke-208"><path d="M110.82,68.51a.25.25,0,0,1-.17-.08.24.24,0,0,1,0-.35l14-14a.25.25,0,0,1,.35.35l-14,14A.25.25,0,0,1,110.82,68.51Z" fill="#46adfc"/></g><g id="Stroke-209"><path d="M110.82,71.69a.25.25,0,0,1-.17-.08.24.24,0,0,1,0-.35l14-14a.25.25,0,0,1,.35.35l-14,14A.25.25,0,0,1,110.82,71.69Z" fill="#46adfc"/></g><g id="Stroke-210"><path d="M110.82,74.87a.25.25,0,0,1-.17-.08.24.24,0,0,1,0-.35l14-14a.25.25,0,0,1,.35.35l-14,14A.25.25,0,0,1,110.82,74.87Z" fill="#46adfc"/></g><g id="Stroke-211"><path d="M110.82,78.06a.25.25,0,0,1-.17-.08.24.24,0,0,1,0-.35l14-14A.25.25,0,0,1,125,64L111,78A.25.25,0,0,1,110.82,78.06Z" fill="#46adfc"/></g><g id="Stroke-212"><path d="M110.82,81.24a.25.25,0,0,1-.17-.08.24.24,0,0,1,0-.35l14-14a.25.25,0,0,1,.35.35l-14,14A.25.25,0,0,1,110.82,81.24Z" fill="#46adfc"/></g><g id="Stroke-213"><path d="M110.82,84.43a.25.25,0,0,1-.17-.08.24.24,0,0,1,0-.35l14-14a.25.25,0,1,1,.35.35l-14,14A.25.25,0,0,1,110.82,84.43Z" fill="#46adfc"/></g><g id="Stroke-214"><path d="M111.11,90.26a.25.25,0,0,1-.18-.08.24.24,0,0,1,0-.35l14-14a.25.25,0,0,1,.36,0,.26.26,0,0,1,0,.35l-14,14A.27.27,0,0,1,111.11,90.26Z" fill="#46adfc"/></g><g id="Stroke-214-2" data-name="Stroke-214"><path d="M110.34,88.4a.23.23,0,0,1-.17-.07.24.24,0,0,1,0-.35l14-14a.25.25,0,0,1,.35.35l-14,14A.24.24,0,0,1,110.34,88.4Z" fill="#46adfc"/></g><g id="Stroke-216"><path d="M110.82,94a.25.25,0,0,1-.17-.08.24.24,0,0,1,0-.35l14-14a.25.25,0,0,1,.35.35l-14,14A.25.25,0,0,1,110.82,94Z" fill="#46adfc"/></g><g id="Stroke-217"><path d="M110.82,97.15a.25.25,0,0,1-.17-.08.24.24,0,0,1,0-.35l14-14a.25.25,0,0,1,.35.35l-14,14A.25.25,0,0,1,110.82,97.15Z" fill="#46adfc"/></g><g id="Stroke-218"><path d="M110.82,99.93a.25.25,0,0,1-.17-.08.24.24,0,0,1,0-.35l14-14a.25.25,0,0,1,.35.35l-14,14A.25.25,0,0,1,110.82,99.93Z" fill="#46adfc"/></g><g id="Stroke-219"><path d="M110.82,103.11a.25.25,0,0,1-.17-.08.24.24,0,0,1,0-.35l14-14A.25.25,0,0,1,125,89l-14,14A.25.25,0,0,1,110.82,103.11Z" fill="#46adfc"/></g><g id="Stroke-220"><path d="M110.82,106.29a.25.25,0,0,1-.17-.08.24.24,0,0,1,0-.35l14-14a.25.25,0,0,1,.35.35l-14,14A.25.25,0,0,1,110.82,106.29Z" fill="#46adfc"/></g><g id="Stroke-221"><path d="M110.82,109.47a.25.25,0,0,1-.17-.08.24.24,0,0,1,0-.35l14-14a.25.25,0,0,1,.35.35l-14,14A.25.25,0,0,1,110.82,109.47Z" fill="#46adfc"/></g><g id="Stroke-222"><path d="M116.93,106.54a.25.25,0,0,1-.17-.08.24.24,0,0,1,0-.35l7.89-7.89a.25.25,0,0,1,.35.35l-7.89,7.89A.25.25,0,0,1,116.93,106.54Z" fill="#46adfc"/></g><g id="Stroke-223"><path d="M110.82,112.65a.25.25,0,0,1-.17-.08.24.24,0,0,1,0-.35l4.45-4.45a.25.25,0,1,1,.35.35L111,112.57A.25.25,0,0,1,110.82,112.65Z" fill="#46adfc"/></g><g id="Stroke-224"><path d="M120.12,106.54a.25.25,0,0,1-.17-.08.24.24,0,0,1,0-.35l4.7-4.7a.24.24,0,0,1,.35,0,.25.25,0,0,1,0,.36l-4.7,4.69A.25.25,0,0,1,120.12,106.54Z" fill="#46adfc"/></g><g id="Stroke-225"><path d="M110.82,115.84a.28.28,0,0,1-.17-.07.25.25,0,0,1,0-.36L115.1,111a.25.25,0,1,1,.35.35L111,115.77A.29.29,0,0,1,110.82,115.84Z" fill="#46adfc"/></g><g id="Stroke-226"><path d="M121.27,108.58a.25.25,0,0,1-.17-.08.24.24,0,0,1,0-.35l3.55-3.55a.25.25,0,0,1,.35.35l-3.55,3.55A.25.25,0,0,1,121.27,108.58Z" fill="#46adfc"/></g><g id="Stroke-227"><path d="M110.82,119a.25.25,0,0,1-.17-.08.24.24,0,0,1,0-.35l4.45-4.45a.25.25,0,1,1,.35.35L111,119A.25.25,0,0,1,110.82,119Z" fill="#46adfc"/></g><g id="Stroke-228"><path d="M121.27,111.76a.25.25,0,0,1-.17-.08.24.24,0,0,1,0-.35l3.55-3.55a.25.25,0,0,1,.35.35l-3.55,3.55A.25.25,0,0,1,121.27,111.76Z" fill="#46adfc"/></g><g id="Stroke-229"><path d="M112.49,120.54a.25.25,0,0,1-.17-.08.24.24,0,0,1,0-.35l2.78-2.78a.25.25,0,1,1,.35.35l-2.78,2.78A.25.25,0,0,1,112.49,120.54Z" fill="#46adfc"/></g><g id="Stroke-230"><path d="M121.27,114.94a.25.25,0,0,1-.17-.08.24.24,0,0,1,0-.35l3.55-3.55a.25.25,0,1,1,.35.35l-3.55,3.55A.25.25,0,0,1,121.27,114.94Z" fill="#46adfc"/></g><g id="Stroke-231"><path d="M121.27,118.12a.25.25,0,0,1-.17-.08.24.24,0,0,1,0-.35l3.55-3.55a.25.25,0,0,1,.35.35L121.45,118A.25.25,0,0,1,121.27,118.12Z" fill="#46adfc"/></g><g id="Stroke-232"><path d="M122,120.54a.25.25,0,0,1-.17-.08.24.24,0,0,1,0-.35l2.79-2.79a.25.25,0,0,1,.35.35l-2.79,2.79A.25.25,0,0,1,122,120.54Z" fill="#46adfc"/></g><g id="Stroke-233"><path d="M148.87,106.86H125.38a.25.25,0,1,1,0-.49h23.49a.25.25,0,0,1,0,.49Z" fill="#46adfc"/></g><g id="Stroke-234"><path d="M148.87,109.11H125.38a.25.25,0,1,1,0-.49h23.49a.25.25,0,0,1,0,.49Z" fill="#46adfc"/></g><g id="Stroke-235"><path d="M148.87,111.36H125.38a.25.25,0,1,1,0-.49h23.49a.25.25,0,0,1,0,.49Z" fill="#46adfc"/></g><g id="Stroke-236"><path d="M148.87,113.61H125.38a.25.25,0,1,1,0-.49h23.49a.25.25,0,0,1,0,.49Z" fill="#46adfc"/></g><g id="Stroke-237"><path d="M148.87,115.86H125.38a.25.25,0,1,1,0-.49h23.49a.25.25,0,0,1,0,.49Z" fill="#46adfc"/></g><g id="Stroke-238"><path d="M148.87,118.11H125.38a.25.25,0,1,1,0-.49h23.49a.25.25,0,0,1,0,.49Z" fill="#46adfc"/></g><g id="Stroke-239"><path d="M148.87,120.36H125.38a.25.25,0,1,1,0-.49h23.49a.25.25,0,0,1,0,.49Z" fill="#46adfc"/></g><g id="Stroke-240"><path d="M36.5,43.64a.27.27,0,0,1-.18-.08.26.26,0,0,1,0-.35L37.5,42a.25.25,0,0,1,.36,0,.26.26,0,0,1,0,.35l-1.18,1.18A.27.27,0,0,1,36.5,43.64Z" fill="#46adfc"/></g><g id="Stroke-241"><path d="M36.5,46.82a.27.27,0,0,1-.18-.08.26.26,0,0,1,0-.35l3.34-3.34a.25.25,0,0,1,.36,0,.26.26,0,0,1,0,.35l-3.34,3.34A.27.27,0,0,1,36.5,46.82Z" fill="#46adfc"/></g><g id="Stroke-242"><path d="M36.5,50a.27.27,0,0,1-.18-.08.26.26,0,0,1,0-.35l5-5a.25.25,0,0,1,.36,0,.26.26,0,0,1,0,.35l-5,5A.27.27,0,0,1,36.5,50Z" fill="#46adfc"/></g><g id="Stroke-243"><path d="M36.5,53.19a.27.27,0,0,1-.18-.08.26.26,0,0,1,0-.35l6.33-6.33a.25.25,0,0,1,.36,0,.26.26,0,0,1,0,.35l-6.33,6.33A.27.27,0,0,1,36.5,53.19Z" fill="#46adfc"/></g><g id="Stroke-244"><path d="M36.5,56.38a.27.27,0,0,1-.18-.08.26.26,0,0,1,0-.35l7.44-7.44a.25.25,0,0,1,.36,0,.26.26,0,0,1,0,.35L36.68,56.3A.27.27,0,0,1,36.5,56.38Z" fill="#46adfc"/></g><g id="Stroke-245"><path d="M36.5,59.56a.27.27,0,0,1-.18-.08.26.26,0,0,1,0-.35l8.35-8.35a.25.25,0,0,1,.36,0,.26.26,0,0,1,0,.35l-8.35,8.35A.27.27,0,0,1,36.5,59.56Z" fill="#46adfc"/></g><g id="Stroke-246"><path d="M36.5,62.74a.27.27,0,0,1-.18-.08.26.26,0,0,1,0-.35l9.09-9.09a.25.25,0,0,1,.36,0,.26.26,0,0,1,0,.35l-9.09,9.09A.27.27,0,0,1,36.5,62.74Z" fill="#46adfc"/></g><g id="Stroke-247"><path d="M36.5,65.92a.27.27,0,0,1-.18-.08.26.26,0,0,1,0-.35L46,55.81a.25.25,0,0,1,.36,0,.26.26,0,0,1,0,.35l-9.68,9.68A.27.27,0,0,1,36.5,65.92Z" fill="#46adfc"/></g><g id="Stroke-248"><path d="M36.5,69.1a.27.27,0,0,1-.18-.08.26.26,0,0,1,0-.35L46.43,58.56a.25.25,0,0,1,.36,0,.26.26,0,0,1,0,.35L36.68,69A.27.27,0,0,1,36.5,69.1Z" fill="#46adfc"/></g><g id="Stroke-249"><path d="M36.5,72.28a.27.27,0,0,1-.18-.08.26.26,0,0,1,0-.35L46.71,61.46a.25.25,0,0,1,.36,0,.26.26,0,0,1,0,.35L36.68,72.2A.27.27,0,0,1,36.5,72.28Z" fill="#46adfc"/></g><g id="Stroke-250"><path d="M36.5,75.46a.27.27,0,0,1-.18-.08.26.26,0,0,1,0-.35l10.5-10.5a.25.25,0,0,1,.36,0,.26.26,0,0,1,0,.35l-10.5,10.5A.27.27,0,0,1,36.5,75.46Z" fill="#46adfc"/></g><g id="Stroke-251"><path d="M36.5,78.64a.27.27,0,0,1-.18-.08.26.26,0,0,1,0-.35L46.74,67.79a.25.25,0,0,1,.36,0,.26.26,0,0,1,0,.35L36.68,78.56A.27.27,0,0,1,36.5,78.64Z" fill="#46adfc"/></g><g id="Stroke-252"><path d="M36.5,81.83a.27.27,0,0,1-.18-.08.26.26,0,0,1,0-.35l10.1-10.1a.25.25,0,0,1,.36,0,.26.26,0,0,1,0,.35l-10.1,10.1A.27.27,0,0,1,36.5,81.83Z" fill="#46adfc"/></g><g id="Stroke-253"><path d="M36.5,85a.27.27,0,0,1-.18-.08.26.26,0,0,1,0-.35l9.43-9.43a.25.25,0,0,1,.36,0,.26.26,0,0,1,0,.35l-9.43,9.43A.27.27,0,0,1,36.5,85Z" fill="#46adfc"/></g><g id="Stroke-254"><path d="M36.5,88.2a.27.27,0,0,1-.18-.08.26.26,0,0,1,0-.35l8.1-8.1a.25.25,0,0,1,.36,0,.26.26,0,0,1,0,.35l-8.1,8.1A.27.27,0,0,1,36.5,88.2Z" fill="#46adfc"/></g><g id="Stroke-255"><path d="M312.8,68.07a.25.25,0,0,1-.18-.08.24.24,0,0,1,0-.35l1.18-1.18a.25.25,0,1,1,.35.35L313,68A.25.25,0,0,1,312.8,68.07Z" fill="#46adfc"/></g><g id="Stroke-256"><path d="M312.8,71.25a.25.25,0,0,1-.18-.08.24.24,0,0,1,0-.35L316,67.48a.25.25,0,1,1,.35.35L313,71.17A.25.25,0,0,1,312.8,71.25Z" fill="#46adfc"/></g><g id="Stroke-257"><path d="M312.8,74.44a.25.25,0,0,1-.18-.08.24.24,0,0,1,0-.35l5-5a.25.25,0,1,1,.35.35l-5,5A.25.25,0,0,1,312.8,74.44Z" fill="#46adfc"/></g><g id="Stroke-258"><path d="M312.8,77.62a.25.25,0,0,1-.18-.08.24.24,0,0,1,0-.35L319,70.86a.25.25,0,1,1,.35.35L313,77.54A.25.25,0,0,1,312.8,77.62Z" fill="#46adfc"/></g><g id="Stroke-259"><path d="M312.8,80.81a.25.25,0,0,1-.18-.08.24.24,0,0,1,0-.35l7.44-7.44a.25.25,0,0,1,.35.35L313,80.73A.23.23,0,0,1,312.8,80.81Z" fill="#46adfc"/></g><g id="Stroke-260"><path d="M312.8,84a.25.25,0,0,1-.18-.08.24.24,0,0,1,0-.35L321,75.21a.25.25,0,0,1,.35.35L313,83.91A.25.25,0,0,1,312.8,84Z" fill="#46adfc"/></g><g id="Stroke-261"><path d="M312.8,87.17a.25.25,0,0,1-.18-.08.24.24,0,0,1,0-.35l9.09-9.09a.25.25,0,1,1,.35.35L313,87.09A.25.25,0,0,1,312.8,87.17Z" fill="#46adfc"/></g><g id="Stroke-262"><path d="M312.8,90.35a.25.25,0,0,1-.18-.08.24.24,0,0,1,0-.35l9.68-9.68a.25.25,0,1,1,.35.35L313,90.27A.25.25,0,0,1,312.8,90.35Z" fill="#46adfc"/></g><g id="Stroke-263"><path d="M312.8,93.53a.25.25,0,0,1-.18-.08.24.24,0,0,1,0-.35L322.73,83a.25.25,0,0,1,.35.35L313,93.45A.25.25,0,0,1,312.8,93.53Z" fill="#46adfc"/></g><g id="Stroke-264"><path d="M312.8,96.71a.25.25,0,0,1-.18-.08.24.24,0,0,1,0-.35L323,85.89a.25.25,0,1,1,.35.35L313,96.63A.25.25,0,0,1,312.8,96.71Z" fill="#46adfc"/></g><g id="Stroke-265"><path d="M312.8,99.89a.25.25,0,0,1-.18-.08.24.24,0,0,1,0-.35L323.12,89a.25.25,0,1,1,.35.35L313,99.81A.25.25,0,0,1,312.8,99.89Z" fill="#46adfc"/></g><g id="Stroke-266"><path d="M312.8,103.07a.25.25,0,0,1-.18-.08.24.24,0,0,1,0-.35L323,92.22a.25.25,0,1,1,.35.35L313,103A.25.25,0,0,1,312.8,103.07Z" fill="#46adfc"/></g><g id="Stroke-267"><path d="M312.8,106.26a.25.25,0,0,1-.18-.08.24.24,0,0,1,0-.35l10.1-10.1a.25.25,0,0,1,.35.35L313,106.18A.25.25,0,0,1,312.8,106.26Z" fill="#46adfc"/></g><g id="Stroke-268"><path d="M312.8,109.44a.25.25,0,0,1-.18-.08.24.24,0,0,1,0-.35l9.43-9.43a.25.25,0,1,1,.35.35L313,109.36A.25.25,0,0,1,312.8,109.44Z" fill="#46adfc"/></g><g id="Stroke-269"><path d="M312.8,112.63a.25.25,0,0,1-.18-.08.24.24,0,0,1,0-.35l8.1-8.1a.25.25,0,0,1,.35.35l-8.1,8.1A.25.25,0,0,1,312.8,112.63Z" fill="#46adfc"/></g></g></g></svg>