<svg id="Layer_1" data-name="Layer 1" xmlns="http://www.w3.org/2000/svg" viewBox="0 0 24 24"><title>internet</title><path id="path-3" d="M12,3a9,9,0,1,0,9,9A9,9,0,0,0,12,3ZM9.68,4.29a11.76,11.76,0,0,0-2,6.21h1C9,7,10.18,4.61,11.41,4.07V10.5h1V4.07c1.22.54,2.43,3,2.71,6.43h1a11.71,11.71,0,0,0-2-6.27A8.05,8.05,0,0,1,20,11.5H4A8.07,8.07,0,0,1,9.68,4.29Zm4.4,15.48a11.71,11.71,0,0,0,2-6.27h-1c-.28,3.45-1.48,5.89-2.71,6.43V13.5h-1v6.43C10.18,19.39,9,17,8.7,13.5h-1a11.76,11.76,0,0,0,2,6.21A8.06,8.06,0,0,1,4,12.5H20a8.05,8.05,0,0,1-5.91,7.27Z"/></svg>