<svg id="Layer_1" data-name="Layer 1" xmlns="http://www.w3.org/2000/svg" viewBox="0 0 24 24"><title>list</title><path id="path-3" d="M19.45,21H4.55a.57.57,0,0,1-.38-.14A.48.48,0,0,1,4,20.5V3.5a.48.48,0,0,1,.17-.36A.57.57,0,0,1,4.55,3h14.9a.57.57,0,0,1,.38.14A.48.48,0,0,1,20,3.5v17a.48.48,0,0,1-.17.36A.57.57,0,0,1,19.45,21ZM5.13,20H18.87V4H5.13ZM12.39,8.17H6.91a.46.46,0,1,1,0-.92H12.4a.46.46,0,1,1,0,.92Zm3.37.41a.57.57,0,0,1-.38-.14l-.88-.77a.41.41,0,0,1-.15-.32A.41.41,0,0,1,14.5,7a.6.6,0,0,1,.76,0l.51.44.9-.79a.6.6,0,0,1,.76,0,.45.45,0,0,1,.15.33.44.44,0,0,1-.15.32L16.14,8.44A.59.59,0,0,1,15.76,8.58Zm-3.37,2.51H6.91a.46.46,0,1,1,0-.92H12.4a.46.46,0,1,1,0,.92Zm3.37.4a.57.57,0,0,1-.38-.14l-.88-.77a.41.41,0,0,1-.15-.32.41.41,0,0,1,.15-.33.6.6,0,0,1,.76,0l.51.44.9-.79a.6.6,0,0,1,.76,0,.45.45,0,0,1,.15.33.44.44,0,0,1-.15.32l-1.29,1.12A.59.59,0,0,1,15.76,11.49ZM12.39,14H6.91a.5.5,0,0,1-.42-.23.43.43,0,0,1,0-.46.5.5,0,0,1,.42-.23H12.4a.46.46,0,1,1,0,.92Zm3.37.41a.57.57,0,0,1-.38-.14l-.88-.77a.41.41,0,0,1-.15-.32.41.41,0,0,1,.15-.33.6.6,0,0,1,.76,0l.51.44.9-.79a.6.6,0,0,1,.76,0,.45.45,0,0,1,.15.33.44.44,0,0,1-.15.32l-1.29,1.12A.59.59,0,0,1,15.76,14.41Zm-3.37,2.51H6.91a.46.46,0,1,1,0-.92H12.4a.46.46,0,1,1,0,.92Zm3.37.4a.57.57,0,0,1-.38-.14l-.88-.77a.41.41,0,0,1-.15-.32.41.41,0,0,1,.15-.33.6.6,0,0,1,.76,0l.51.44.9-.79a.6.6,0,0,1,.76,0,.45.45,0,0,1,.15.33.44.44,0,0,1-.15.32l-1.29,1.12A.59.59,0,0,1,15.76,17.32Z"/></svg>