<svg id="Layer_1" data-name="Layer 1" xmlns="http://www.w3.org/2000/svg" viewBox="0 0 24 24"><title>mail</title><path id="path-3" d="M20.8,5.6a.37.37,0,0,0-.3-.1H3.5a.37.37,0,0,0-.3.1A.52.52,0,0,0,3,6V18.2c0,.1.1.1.1.2a.37.37,0,0,0,.3.1H20.5c.1,0,.2-.1.3-.1A.4.4,0,0,0,21,18V6A.76.76,0,0,0,20.8,5.6ZM5,6.5H19.5L12,11.4,4.5,6.5ZM20.1,16.8l-4.9-5.1a.48.48,0,0,0-.7,0h0a.48.48,0,0,0,0,.7l4.8,5.1H4.6l4.8-5.1a.49.49,0,0,0-.7-.7h0L4,16.8V7.3l7.8,5.1a.31.31,0,0,0,.2.1c.1,0,.2,0,.2-.1L20,7.3Z" style="fill:#231f20"/></svg>