<svg id="Layer_1" data-name="Layer 1" xmlns="http://www.w3.org/2000/svg" viewBox="0 0 24 24"><title>money-3</title><path id="path-3" d="M16.58,11.47H3.49a.44.44,0,0,0-.34.13.49.49,0,0,0-.15.34V19a.5.5,0,0,0,.15.34.53.53,0,0,0,.34.13H16.58a.56.56,0,0,0,.35-.13.49.49,0,0,0,.14-.34V12a.49.49,0,0,0-.13-.36A.5.5,0,0,0,16.58,11.47ZM16,17.81a.78.78,0,0,0-.78.76H4.68a.76.76,0,0,0-.75-.76V13.45a.77.77,0,0,0,.59-.33.78.78,0,0,0,.08-.68H15.32a.87.87,0,0,0-.05.28.77.77,0,0,0,.78.77v4.36ZM9.27,16.3a1.21,1.21,0,0,0,.78.36.39.39,0,0,0,.31-.1.41.41,0,0,0,.14-.31c0-.56-1.48-.5-1.48-1.52a1,1,0,0,1,.83-1v-.44h.37v.43a1.2,1.2,0,0,1,.77.35l-.24.49a1.1,1.1,0,0,0-.68-.29.4.4,0,0,0-.33.1.42.42,0,0,0-.15.3c0,.57,1.48.47,1.48,1.51a.94.94,0,0,1-.84,1v.44H9.85v-.47A1.43,1.43,0,0,1,9,16.77Zm4-7A1.2,1.2,0,0,0,14,9.7a.41.41,0,0,0,.46-.4c0-.56-1.48-.5-1.48-1.52a.94.94,0,0,1,.82-1V6.39h.37v.43a1.24,1.24,0,0,1,.78.34l-.24.5A1.1,1.1,0,0,0,14,7.37a.47.47,0,0,0-.32.1.42.42,0,0,0-.15.31c0,.56,1.48.46,1.48,1.51a1,1,0,0,1-.85,1v.43h-.37v-.47A1.47,1.47,0,0,1,13,9.81Zm7.3-4.85A.48.48,0,0,1,21,5v7.15a.49.49,0,0,1-.15.34.49.49,0,0,1-.34.14H18V12a1.82,1.82,0,0,0,0-.33h1.24a.77.77,0,0,1,.77-.77V6.54a.74.74,0,0,1-.54-.23.76.76,0,0,1-.23-.55.86.86,0,0,1,0-.27H8.63a.73.73,0,0,1-.09.67A.75.75,0,0,1,8,6.5v4H7V5a.48.48,0,0,1,.15-.36.5.5,0,0,1,.37-.13Z" style="fill:#231f20"/></svg>