<svg id="Layer_1" data-name="Layer 1" xmlns="http://www.w3.org/2000/svg" viewBox="0 0 24 24"><title>money-1</title><path id="path-3" d="M20.44,8.5H3.56A.55.55,0,0,0,3,9V18a.55.55,0,0,0,.56.53H20.44A.55.55,0,0,0,21,18V9A.55.55,0,0,0,20.44,8.5Zm-2.74,9H6.23a2.74,2.74,0,0,0-2.23-2v-4a2.75,2.75,0,0,0,2.23-2H17.7A2.73,2.73,0,0,0,20,11.55v3.93A2.73,2.73,0,0,0,17.7,17.5ZM20,10.39a1.46,1.46,0,0,1-1-.89h1ZM4.85,9.5a1.43,1.43,0,0,1-.85.85V9.5ZM4,16.5a1.48,1.48,0,0,1,.85.85H4Zm15,.85a1.47,1.47,0,0,1,.94-.85v.89Zm-6.91-4.28a.49.49,0,0,0-.17-.34.5.5,0,0,0-.37-.12c-.32,0-.52.15-.52.39s.2.37.76.55c.86.28,1.21.7,1.21,1.27a1.25,1.25,0,0,1-1.15,1.12v.56h-.7v-.56A1.28,1.28,0,0,1,10,14.73h.89a.59.59,0,0,0,.19.43.62.62,0,0,0,.45.15.52.52,0,0,0,.4-.12.47.47,0,0,0,.18-.36c0-.33-.23-.48-.79-.67-.88-.27-1.16-.66-1.16-1.2a1.14,1.14,0,0,1,1-1V11.5h.69V12a1.13,1.13,0,0,1,1.05,1.12ZM18,6.59H5V7.5H4V6a.53.53,0,0,1,.49-.54h15A.53.53,0,0,1,20,6V7.5H19V6.59Z" style="fill:#231f20"/></svg>