<svg id="Layer_1" data-name="Layer 1" xmlns="http://www.w3.org/2000/svg" viewBox="0 0 24 24"><title>money-2</title><path id="path-3" d="M20.44,8H3.56A.55.55,0,0,0,3,8.53v8.94a.55.55,0,0,0,.56.53H20.44a.55.55,0,0,0,.56-.53V8.53A.55.55,0,0,0,20.44,8ZM17.7,17H6.23A2.74,2.74,0,0,0,4,15V11A2.75,2.75,0,0,0,6.23,9H17.7A2.73,2.73,0,0,0,20,11.05V15A2.73,2.73,0,0,0,17.7,17ZM20,9.89A1.46,1.46,0,0,1,19,9h1ZM4.85,9A1.43,1.43,0,0,1,4,9.85V9ZM4,16a1.48,1.48,0,0,1,.85.85H4Zm15,.85a1.47,1.47,0,0,1,.94-.85v.89Zm-6.91-4.28a.49.49,0,0,0-.17-.34.5.5,0,0,0-.37-.12c-.32,0-.52.15-.52.39s.2.37.76.55c.86.28,1.21.7,1.21,1.27a1.25,1.25,0,0,1-1.15,1.12V16h-.7v-.56A1.28,1.28,0,0,1,10,14.23h.89a.59.59,0,0,0,.19.43.62.62,0,0,0,.45.15.52.52,0,0,0,.4-.12.47.47,0,0,0,.18-.36c0-.33-.23-.48-.79-.67-.88-.27-1.16-.66-1.16-1.2a1.14,1.14,0,0,1,1-1V11h.69v.47a1.13,1.13,0,0,1,1.05,1.12ZM18,6.09H5V7H4V5.54A.53.53,0,0,1,4.49,5h15a.53.53,0,0,1,.49.54V7H19V6.09ZM21,24h3V21Z" style="fill:#231f20"/></svg>