<svg id="Layer_1" data-name="Layer 1" xmlns="http://www.w3.org/2000/svg" viewBox="0 0 24 24"><title>phone</title><path id="path-3" d="M20.86,14.53a.51.51,0,0,0-.33-.13h-.18A10.6,10.6,0,0,1,17.5,14a.48.48,0,0,0-.46.12L15.1,16.06a14.32,14.32,0,0,1-7.26-7.3l2-2A.47.47,0,0,0,10,6.37l-.36-3A.47.47,0,0,0,9.11,3H3.48A.53.53,0,0,0,3,3.52V4H8.69L9,6.28,7.47,7.8l-.55.55a.49.49,0,0,0-.11.5c.14.37.31.71.47,1.06A14.54,14.54,0,0,0,15,17.12a15.27,15.27,0,0,0,5.07,1.15V20a16.18,16.18,0,0,1-6.83-1.64A16.54,16.54,0,0,1,4.14,6H3.19a17.48,17.48,0,0,0,1.49,5,17.43,17.43,0,0,0,8.14,8.21A17,17,0,0,0,20.35,21h.18a.47.47,0,0,0,.47-.47V14.87A.48.48,0,0,0,20.86,14.53Zm-.8,2.75a14,14,0,0,1-4-.83L17.51,15a11.52,11.52,0,0,0,2.55.35Z"/></svg>