<svg id="Layer_1" data-name="Layer 1" xmlns="http://www.w3.org/2000/svg" viewBox="0 0 24 24"><title>pin</title><path id="path-3" d="M17.25,5.41A6.34,6.34,0,0,0,12,3,6.35,6.35,0,0,0,6.72,5.43c-1.48,2-1.62,4.88-.38,7.69a27.62,27.62,0,0,0,5.29,7.72A.51.51,0,0,0,12,21a.54.54,0,0,0,.38-.15,26.93,26.93,0,0,0,5.29-7.72C18.91,10.3,18.75,7.42,17.25,5.41Zm-.55,7.36a26.3,26.3,0,0,1-4.7,7,27.12,27.12,0,0,1-4.7-7c-1.12-2.52-1-5.06.28-6.81A5.3,5.3,0,0,1,12,4a5.23,5.23,0,0,1,4.39,2,6.87,6.87,0,0,1,.32,6.77ZM14.5,8.5A2.5,2.5,0,1,1,12,6V7a1.5,1.5,0,1,0,1.5,1.5Z"/></svg>