<svg id="Layer_1" data-name="Layer 1" xmlns="http://www.w3.org/2000/svg" viewBox="0 0 24 24"><title>preview</title><path id="path-3" d="M20.93,11.74C20.76,11.51,16.91,6,12,6s-8.76,5.51-8.92,5.74a.45.45,0,0,0,0,.52C3.25,12.49,7.1,18,12,18s8.76-5.51,8.92-5.74A.47.47,0,0,0,20.93,11.74ZM12,17.06c-3.82,0-7.11-4-7.92-5.07.82-1.06,4.1-5,7.92-5s7.11,4,7.92,5.07C19.12,13.07,15.83,17.06,12,17.06Zm-1.3-5.55a1.35,1.35,0,0,1,2.58,0h1a2.36,2.36,0,0,0-4.64,0Zm2.52,1a1.35,1.35,0,0,1-2.45,0H9.71a2.35,2.35,0,0,0,4.56,0Z" style="fill:#231f20"/></svg>