<svg id="Layer_1" data-name="Layer 1" xmlns="http://www.w3.org/2000/svg" viewBox="0 0 24 24"><title>print</title><path d="M18,12a.5.5,0,0,0,0-1H6a.5.5,0,1,0,0,1H7v7a.5.5,0,0,0,.5.5h8.93a.51.51,0,0,0,.37-.16A.48.48,0,0,0,17,19V12ZM16,18.5H8V12h8Z" style="fill:#231f20"/><path d="M20.86,6.7a.47.47,0,0,0-.35-.13H16V5a.5.5,0,0,0-.5-.5h-7A.5.5,0,0,0,8,5V6.57H3.46A.47.47,0,0,0,3,7v8.53a.47.47,0,0,0,.47.47H6v-.95H3.94V7.5H20v7.58H18v1h2.54a.47.47,0,0,0,.47-.47V7A.48.48,0,0,0,20.86,6.7ZM15,6.5H9v-1h6Z" style="fill:#231f20"/><circle cx="18.73" cy="9.26" r="0.73" style="fill:#231f20"/></svg>