<svg id="Layer_1" data-name="Layer 1" xmlns="http://www.w3.org/2000/svg" viewBox="0 0 24 24"><title>quick-access</title><path id="path-3" d="M17,19.8A2.8,2.8,0,1,0,14.2,17,2.8,2.8,0,0,0,17,19.8ZM17,21a4,4,0,1,1,4-4A4,4,0,0,1,17,21ZM7,9.8A2.8,2.8,0,1,0,4.2,7,2.8,2.8,0,0,0,7,9.8ZM7,11a4,4,0,1,1,4-4A4,4,0,0,1,7,11ZM17,9.8A2.8,2.8,0,1,0,14.2,7,2.8,2.8,0,0,0,17,9.8ZM17,11a4,4,0,1,1,4-4A4,4,0,0,1,17,11ZM7,19.8A2.8,2.8,0,1,0,4.2,17,2.8,2.8,0,0,0,7,19.8ZM7,21a4,4,0,1,1,4-4A4,4,0,0,1,7,21Zm14,3h3V21Z"/></svg>