<svg id="Layer_1" data-name="Layer 1" xmlns="http://www.w3.org/2000/svg" viewBox="0 0 24 24"><title>quickfind</title><path id="path-3" d="M12,21a.51.51,0,0,1-.35-.15l-8.5-8.5A.49.49,0,0,1,3,12a.47.47,0,0,1,.15-.35l8.49-8.5a.51.51,0,0,1,.71,0l8.5,8.5A.47.47,0,0,1,21,12a.49.49,0,0,1-.15.36l-8.5,8.49A.48.48,0,0,1,12,21ZM4.21,12,12,19.78,19.79,12,12,4.21Zm12.55-1.37L13.23,7.3a.49.49,0,0,0-.71,0,.5.5,0,0,0,0,.71l2.64,2.5h-6a.5.5,0,0,0-.5.5V14.3a.5.5,0,0,0,.5.5.51.51,0,0,0,.5-.5V11.53h5.4L12.54,14a.5.5,0,1,0,.7.72l3.53-3.4a.46.46,0,0,0,0-.69Z"/></svg>