<svg id="Layer_1" data-name="Layer 1" xmlns="http://www.w3.org/2000/svg" viewBox="0 0 24 24"><title>receipt</title><path id="path-3" d="M15.48,21A4.51,4.51,0,1,1,20,16.45,4.51,4.51,0,0,1,15.48,21Zm0-1A3.54,3.54,0,1,0,12,16.46,3.52,3.52,0,0,0,15.49,20ZM14.82,6.5a.48.48,0,0,1-.46.5H6.59a.5.5,0,0,1,0-1h7.77A.48.48,0,0,1,14.82,6.5Zm0,2.09a.48.48,0,0,1-.46.5H6.59a.5.5,0,0,1,0-1h7.77A.48.48,0,0,1,14.82,8.59ZM11.43,11a.48.48,0,0,1-.47.5H6.59a.5.5,0,0,1,0-1h4.35a.48.48,0,0,1,.47.5Zm-.83,4.24H6.13v1H10.5A5.56,5.56,0,0,1,10.6,15.24Zm.83,4.42a5.3,5.3,0,0,0,.6.73,1.29,1.29,0,0,1-1.76-.25L10.15,20a.42.42,0,0,0-.68,0l-.12.19a1.32,1.32,0,0,1-1.77.27l-1.16-.79a.47.47,0,0,0-.56.06L4.64,21H4V4.42A1.39,1.39,0,0,1,5.34,3H15.63A1.39,1.39,0,0,1,17,4.42V11h-.9V4.39a.47.47,0,0,0-.45-.47H5.37a.46.46,0,0,0-.44.47v15l.26-.33a1.34,1.34,0,0,1,1.69-.19l1.18.8a.43.43,0,0,0,.58-.09l.13-.19a1.3,1.3,0,0,1,2.05,0l.11.14A.44.44,0,0,0,11.43,19.66Zm3.13-2.2a1.59,1.59,0,0,0,1,.42c.3,0,.58-.16.58-.48,0-.67-1.9-.61-1.9-1.82a1.17,1.17,0,0,1,1.06-1.13v-.53h.48v.52a1.62,1.62,0,0,1,1,.41l-.31.59a1.51,1.51,0,0,0-.88-.35c-.34,0-.6.2-.6.48,0,.67,1.89.55,1.89,1.81a1.17,1.17,0,0,1-1.08,1.15V19h-.48v-.52A1.86,1.86,0,0,1,14.17,18Z" style="fill:#231f20"/></svg>