<svg id="Layer_1" data-name="Layer 1" xmlns="http://www.w3.org/2000/svg" viewBox="0 0 24 24"><title>share</title><path id="path-3" d="M20.76,9.55l-8.5-6.48a.48.48,0,0,0-.49,0,.52.52,0,0,0-.25.46V6.65C6.76,6.92,3,11.23,3,16.5a10.43,10.43,0,0,0,.33,2.61A18.46,18.46,0,0,0,4,21a16.81,16.81,0,0,1,.32-1.86,8.23,8.23,0,0,1,7.23-6.2v3.54a.51.51,0,0,0,.25.46.44.44,0,0,0,.49,0L16,14l.85-.65,2-1.52.78-.59,1.17-.89A.56.56,0,0,0,21,9.93a.55.55,0,0,0-.21-.43Zm-1.71.89-.78.59-2.38,1.81-.9.69-2.53,1.91V11.87h-1A9,9,0,0,0,4,17.24V16.5C4,11.81,7.37,8,11.59,7.69h.95V4.5L19.65,10Z" style="fill:#231f20"/></svg>