<svg id="Layer_1" data-name="Layer 1" xmlns="http://www.w3.org/2000/svg" viewBox="0 0 24 24"><title>star</title><path id="path-3" d="M17.25,21a.46.46,0,0,1-.29-.1l-5-3.79L7,20.9a.48.48,0,0,1-.58,0,.53.53,0,0,1-.18-.58l1.9-6.12-5-3.8A.53.53,0,0,1,3,9.82a.49.49,0,0,1,.47-.36H9.63l1.89-6.13a.5.5,0,0,1,.94,0l1.9,6.13h6.15a.5.5,0,0,1,.47.36.56.56,0,0,1-.18.58l-5,3.8,1.9,6.12a.52.52,0,0,1-.18.58A.38.38,0,0,1,17.25,21ZM12,16a.51.51,0,0,1,.29.1l4,3.07-1.54-5a.55.55,0,0,1,.18-.58l4-3.08H14.05a.5.5,0,0,1-.47-.36L12,5.13l-1.54,5a.49.49,0,0,1-.47.36H5l4,3.09a.51.51,0,0,1,.18.58l-1.53,5,4-3.07A.57.57,0,0,1,12,16Z" style="fill:#231f20"/></svg>