<svg id="Layer_1" data-name="Layer 1" xmlns="http://www.w3.org/2000/svg" viewBox="0 0 24 24"><title>style-1</title><path id="path-3" d="M7.34,8.71l-.47.49C5.39,10.68,5.5,13.29,7,15.41l-.25.17a9.44,9.44,0,0,1-2,1.14A2.56,2.56,0,0,0,3,18.54a2.17,2.17,0,0,0,.57,1.85A2.17,2.17,0,0,0,5.51,21a2.49,2.49,0,0,0,1.74-1.72,8.92,8.92,0,0,1,1.19-2L8.56,17c2.15,1.47,4.71,1.57,6.18.1l.48-.48Zm-.19,8.13c.18-.17.38-.34.59-.51a15.29,15.29,0,0,0-1.47,2.5c-.17.43-.47,1-1,1.07a1.12,1.12,0,0,1-.91-.26l0,0a1,1,0,0,1-.28-.88c.09-.5.64-.83,1.07-1a20.11,20.11,0,0,0,2.48-1.48Zm2-.84a3.79,3.79,0,0,1-.45-.34,3.59,3.59,0,0,1-.39-.39A2.59,2.59,0,0,1,8,14.85c-1.17-1.59-1.39-3.46-.56-4.63l6.3,6.32A3.91,3.91,0,0,1,9.15,16ZM12.61,4.45l.92.92L11.67,8.52a.54.54,0,0,0,.06.67.53.53,0,0,0,.65.07l3.23-1.88,2.33,2.34-2.5,1.84a.55.55,0,0,0-.12.76v0a.52.52,0,0,0,.7,0l2.64-1.94,1,1-3.87,3.24L9.32,8.2Zm8.24,6.67L16.54,6.81,15.75,6l-1,.56-1,.58.63-1L15,5.3l-.78-.79L12.91,3.16A.53.53,0,0,0,12.5,3a.58.58,0,0,0-.39.19l-4,4.74a.52.52,0,0,0,0,.73l7.11,7.13a.55.55,0,0,0,.72,0l4.81-3.91a.51.51,0,0,0,.22-.35A.56.56,0,0,0,20.85,11.12Z"/></svg>