<svg id="Layer_1" data-name="Layer 1" xmlns="http://www.w3.org/2000/svg" viewBox="0 0 24.53 24.53"><title>style-2</title><path id="path-3" d="M11.84,17.77a1.81,1.81,0,0,0-.06-.57c1.85-.54,5-3.46,5.39-3.86s5.15-5,3.88-6.21-6,3.22-6.45,3.73-3.58,3.49-4,5.27a3.26,3.26,0,0,0-.7-.07,3.2,3.2,0,0,0-2.24,1,4.16,4.16,0,0,0-.7,1.78V19A3.72,3.72,0,0,1,6.52,20a.43.43,0,0,0-.07.42.31.31,0,0,0,0,.1.55.55,0,0,0,.24.12c.1,0,2.51.49,3.87-.6A3.17,3.17,0,0,0,11.84,17.77Zm8.49-10c-.06.55-1.18,2.4-3.84,5s-4.62,3.64-5.16,3.71c.06-.54,1.18-2.39,3.85-5S19.8,7.82,20.33,7.76ZM7.49,19.87a5.28,5.28,0,0,0,.24-.77V19a4.82,4.82,0,0,1,.49-1.36,2.29,2.29,0,0,1,1.59-.7,1.42,1.42,0,0,1,.92.24.83.83,0,0,1,.16.59A2.37,2.37,0,0,1,10,19.38,3.83,3.83,0,0,1,7.49,19.87ZM8.85,9.54a1.33,1.33,0,1,1,1.38-1.33A1.35,1.35,0,0,1,8.85,9.54Zm0-1.78a.45.45,0,1,0,.46.45A.46.46,0,0,0,8.85,7.76Zm-.7,6.36A1.78,1.78,0,1,1,10,12.34,1.82,1.82,0,0,1,8.15,14.12Zm0-2.66A.91.91,0,0,0,7.3,12a.84.84,0,0,0,.2,1,.94.94,0,0,0,1,.19.87.87,0,0,0,.57-.82A.9.9,0,0,0,8.15,11.46ZM6,18.35l-.21-.19A8.24,8.24,0,0,1,3.68,9.63,8.81,8.81,0,0,1,13,3.82,2.77,2.77,0,0,1,15.1,5.1a1.79,1.79,0,0,1,.17,1.72,2.71,2.71,0,0,1-1.16,1.09,3.29,3.29,0,0,0-1.16,1,2.4,2.4,0,0,0-.27,2.46c-.21.22-.43.45-.65.71a3.3,3.3,0,0,1,.1-3.64,4.15,4.15,0,0,1,1.44-1.32,1.87,1.87,0,0,0,.82-.73.92.92,0,0,0-.09-.88,1.84,1.84,0,0,0-1.44-.89H12a8.17,8.17,0,0,0-1.31.11,7.76,7.76,0,0,0-6.13,5,7.34,7.34,0,0,0,1.74,7.57A8.51,8.51,0,0,0,6,18.35Zm13.8-6.49a4,4,0,0,0,.63-.82,2.1,2.1,0,0,1,.28,1,8.71,8.71,0,0,1-.16,1.83,8.68,8.68,0,0,1-7.21,6.71,9.43,9.43,0,0,1-1.4.11h-.71a4.27,4.27,0,0,0,.75-.89,8.24,8.24,0,0,0,1.22-.08,7.76,7.76,0,0,0,6.46-6A7,7,0,0,0,19.83,12,.38.38,0,0,0,19.83,11.86Z"/></svg>