<svg id="Layer_1" data-name="Layer 1" xmlns="http://www.w3.org/2000/svg" viewBox="0 0 24 24"><title>sync</title><path id="path-3" d="M21.91,14.5a.5.5,0,0,1-.12.69.44.44,0,0,1-.29.08.46.46,0,0,1-.41-.22l-1.16-1.69A8.16,8.16,0,0,1,4.48,15.21a.5.5,0,0,1,0-.38.53.53,0,0,1,.67-.29.57.57,0,0,1,.28.27A7.14,7.14,0,0,0,19,13l-1.84,1.34a.57.57,0,0,1-.38.09.52.52,0,0,1-.33-.21.5.5,0,0,1,.11-.7l2.8-2a.47.47,0,0,1,.38-.08.51.51,0,0,1,.34.21Zm-15-4-2.25,2a.51.51,0,0,1-.33.13A.54.54,0,0,1,4,12.42L2.11,10.15a.53.53,0,0,1,.07-.72.46.46,0,0,1,.37-.11.48.48,0,0,1,.34.18l1,1.24a8.16,8.16,0,0,1,15.6-1.63.46.46,0,0,1,0,.38.45.45,0,0,1-.28.26.51.51,0,0,1-.66-.28A7.13,7.13,0,0,0,4.91,11L6.22,9.79a.55.55,0,0,1,.36-.15.51.51,0,0,1,.36.15A.51.51,0,0,1,6.94,10.51Z" style="fill:#231f20"/></svg>