<svg id="Layer_1" data-name="Layer 1" xmlns="http://www.w3.org/2000/svg" viewBox="0 0 24 24"><title>trash</title><path id="path-3" d="M18.53,5.71H13.76V4.48A.48.48,0,0,0,13.29,4H10.65a.48.48,0,0,0-.47.48V5.71H5.47A.47.47,0,0,0,5,6.19a.48.48,0,0,0,.47.49H6.74V19.52a.48.48,0,0,0,.47.48h9.57a.48.48,0,0,0,.47-.48V6.68h1.28A.48.48,0,0,0,19,6.19.47.47,0,0,0,18.53,5.71ZM11.11,5H12.8v.64H11.11ZM16.31,19H7.68V6.68h8.63Zm-6.21-1.7a.47.47,0,0,0,.47-.48V8.7a.47.47,0,1,0-.94,0v8.15A.47.47,0,0,0,10.1,17.33Zm3.77,0a.47.47,0,0,0,.47-.48V8.7a.47.47,0,1,0-.94,0v8.15A.47.47,0,0,0,13.87,17.33Z" style="fill:#231f20"/></svg>