<svg id="Layer_1" data-name="Layer 1" xmlns="http://www.w3.org/2000/svg" viewBox="0 0 24 24"><title>wallet</title><path d="M20.87,9.49a.37.37,0,0,0-.3-.2H20V5.53A.54.54,0,0,0,19.47,5H3.53A.54.54,0,0,0,3,5.53V18.47a.54.54,0,0,0,.53.54H19.47a.54.54,0,0,0,.53-.54V15.74a.5.5,0,0,0-.5-.5.5.5,0,0,0-.5.5v2.19H4V8.24H14.46a.54.54,0,0,0,0-1.08H4V6.09H19v3.2H15.43a.37.37,0,0,0-.3.2A.79.79,0,0,0,15,10v4a.84.84,0,0,0,.13.48.38.38,0,0,0,.3.19h5.14a.38.38,0,0,0,.3-.19A.84.84,0,0,0,21,14V10A.79.79,0,0,0,20.87,9.49ZM20,13.61H16V10.39h4Z" style="fill:#231f20"/></svg>