<svg id="Layer_1" data-name="Layer 1" xmlns="http://www.w3.org/2000/svg" viewBox="0 0 24 24"><title>wrench</title><path id="path-3" d="M20.21,16.75,12.06,9.4a4.53,4.53,0,0,0,.34-1.71A4.69,4.69,0,0,0,6.66,3.12a.46.46,0,0,0-.34.33.47.47,0,0,0,.11.47l.47.47L8.19,5.68A.48.48,0,0,0,8.87,5l-1-1a3.73,3.73,0,0,1,3.62,3.73,3.52,3.52,0,0,1-.39,1.62.49.49,0,0,0,.11.56l8.41,7.59a1.73,1.73,0,0,1,.38,1v.1A1.44,1.44,0,0,1,18.61,20h-.12a1.41,1.41,0,0,1-1-.45L9.63,11.27a.47.47,0,0,0-.53-.12A3.74,3.74,0,0,1,4,7.77l2.39,2.39a.49.49,0,0,0,.57.08A8.54,8.54,0,0,0,10.19,7l.07-.12a.48.48,0,0,0-.2-.61.49.49,0,0,0-.63.14l-.07.12A7.64,7.64,0,0,1,6.75,9.22L3.92,6.4a.5.5,0,0,0-.47-.12.49.49,0,0,0-.33.35,4.7,4.7,0,0,0,6,5.52l7.61,8.1a2.38,2.38,0,0,0,1.74.75h.12A2.39,2.39,0,0,0,21,18.62v-.1A2.64,2.64,0,0,0,20.21,16.75Z" style="fill:#231f20"/></svg>